<?xml version="1.0" encoding="utf-8"?>
<!-- Generator: Adobe Illustrator 25.4.3, SVG Export Plug-In . SVG Version: 6.00 Build 0)  -->
<svg version="1.1" id="Layer_1" xmlns="http://www.w3.org/2000/svg" xmlns:xlink="http://www.w3.org/1999/xlink" x="0px" y="0px"
	 viewBox="0 0 618.1 470.3" style="enable-background:new 0 0 618.1 470.3;" xml:space="preserve">
<path d="M238.7,112.1c-1,5-2.7,8.5-5.1,10.4c-6,5-13.8,7.4-23.5,7.4c-2.1,0-4.1-0.2-6-0.7c-3.3-0.8-5.8-1.3-7.7-1.4
	s-4.3-2.1-7.1-5.9c-4.5-6.1-6.7-12.4-6.7-18.9c0-3.4,2.6-7.5,7.9-12.6c4-3.8,7.5-6.5,10.5-8.3c4.6-2.7,10.4-4.1,17.7-4.1
	c5.8,0,10.7,1.3,14.8,3.8c1.4,0.8,3.4,3.3,6.1,7.5c1.3,2.1,2,3.9,2,5.5l-0.1,2.6c0.1,1.7,0.1,2.6,0.1,2.7c0,0.7-0.3,1.1-0.8,1.1
	c-1.1,0-3.4-0.6-6.9-1.8c-2.7-0.9-7.3-1.4-13.7-1.4c-9.6,0-17.7,1-24.5,3c-4.5,1.3-6.8,2.9-6.8,4.6c0,3.3,1.7,6.9,5.2,10.8
	c2.8,3.1,7.5,4.7,14.1,4.7c9.1,0,18-2.3,26.6-6.8C235.8,113.7,237.1,113,238.7,112.1z"/>
<path d="M255.5,68.7c0.5-0.2,1-0.3,1.3-0.3c1.5,0,3.6,1.3,6.1,3.9c1.8,1.8,3.2,4.1,4.3,6.9c3.5,9.1,5.6,15.1,6.2,18.2
	c0.8,3.7,1.8,9.4,2.9,17.2L290,85c3.4-7.4,5.1-11.5,5.1-12.3c0-0.1-0.1-0.3-0.1-0.6c-0.8-1.6-1.2-2.6-1.2-2.8c0-0.6,0.4-0.9,1.1-0.9
	s1.8,0.5,3.2,1.6c1.2,0.9,2,1.9,2.3,3l7,26l4.3,16.7l11.7-28.8c2-4.9,4-8.8,6.2-11.7c1.7-2.4,2.5-4.1,2.5-5.1c0-0.6-0.4-1.2-1.3-1.9
	c1.5-0.3,2.7-0.4,3.6-0.4c1.2,0,1.9,0.4,1.9,1.3c0,0.8-0.8,2.5-2.5,5.2c-2.8,4.7-4.7,8.4-5.5,11.2l-6.6,21.6l-3.6,10.7
	c-0.9,4.7-1.6,7.4-1.9,8.1c-1.6,3.7-3.7,5.6-6.3,5.6c-1.2,0-2.2-0.6-3.1-1.7c-0.6-0.7-0.9-1.3-1-1.7l-2.2-9.2
	c-0.1-0.5-0.5-1.8-1.3-3.9c-0.3-1.1-0.6-2-0.7-2.7l-4.8-33l-8.9,26.3l-1.6,4.2c-0.1,1.4-0.2,2.3-0.4,2.8c-0.2,0.5-0.8,1.3-1.8,2.4
	c0.1,0.2,0.2,0.4,0.2,0.6c0,0.1-0.4,0.9-1.2,2.5l-1.6,3.3l-1.7,2.8c-0.7,1.8-1.3,2.9-1.6,3.3c-0.5,0.5-1.7,1-3.5,1.5l-0.1,0.1
	l-2.1-1c-0.8-0.3-1.2-0.6-1.3-0.7c-0.1-0.1-0.7-2.3-1.9-6.5c0,0,0.1-0.7,0.4-1.9c0.1-0.6,0.2-1.1,0.2-1.3c0-0.8-0.8-7.2-2.5-18.9
	c-0.7-4.8-2-9.8-3.8-15.1C262.3,78.6,259.4,73.7,255.5,68.7z"/>
<path d="M402.9,112.1c-1,5-2.7,8.5-5.1,10.4c-6,5-13.8,7.4-23.5,7.4c-2.1,0-4.1-0.2-6-0.7c-3.3-0.8-5.8-1.3-7.7-1.4
	c-1.9-0.1-4.3-2.1-7.1-5.9c-4.5-6.1-6.7-12.4-6.7-18.9c0-3.4,2.6-7.5,7.9-12.6c4-3.8,7.5-6.5,10.5-8.3c4.6-2.7,10.4-4.1,17.7-4.1
	c5.8,0,10.7,1.3,14.8,3.8c1.4,0.8,3.4,3.3,6.1,7.5c1.3,2.1,2,3.9,2,5.5l-0.1,2.6c0.1,1.7,0.1,2.6,0.1,2.7c0,0.7-0.3,1.1-0.8,1.1
	c-1.1,0-3.4-0.6-6.9-1.8c-2.7-0.9-7.3-1.4-13.7-1.4c-9.6,0-17.7,1-24.5,3c-4.5,1.3-6.8,2.9-6.8,4.6c0,3.3,1.7,6.9,5.2,10.8
	c2.8,3.1,7.5,4.7,14.1,4.7c9.1,0,18-2.3,26.6-6.8C400,113.7,401.3,113,402.9,112.1z"/>
<path d="M433,61.3c1.4,1.4,2.3,2.4,2.6,3c0.3,0.6,0.7,1.8,1,3.6c1.5,9.5,2.2,17.6,2.2,24.3c0,2.5-0.6,8.8-1.8,18.9
	c-0.4,3.5-0.7,5.5-0.9,6.2c-0.7,2.3-2.5,5.3-5.5,9.2c5.6-0.4,9.7-0.7,12.3-0.7h7.9c4.4,0,8.2-1,11.3-3c1.8-1.1,3.9-3.5,6.2-7
	c0.1,1.1,0.1,2.1,0.1,2.9c0,2.2-1.4,5.3-4.3,9.3c-2.3,3.2-6.2,4.8-11.9,4.8c-0.4,0-4.8-0.2-13.3-0.7l-2.2-0.1
	c-7.6,0.1-11.9,0.5-13.1,1s-2.1,0.8-2.7,0.8c-0.3,0-0.6-0.6-1-1.9c-0.5-1.6-0.8-2.5-0.8-2.7c0-0.6,1.7-3.2,5.1-7.6
	c2.7-3.5,5-9.1,7.1-16.6c1.8-7.1,2.7-17.2,2.7-30.1V73C434.1,69.7,433.7,65.7,433,61.3z"/>
<path d="M484.1,74.1c1-0.1,1.8-0.4,2.4-0.8c4.7,1.7,7.7,3.7,9,6c1.6,2.8,2.7,8.1,3.3,15.7c3.9-4.9,6.4-7.9,7.7-9l12.1-10.3
	c0.7-0.6,1.9-3,3.5-7.3c3.1,1.9,4.6,3.6,4.6,5.2c0,0.3-5.6,5.9-16.8,16.6c-0.6,0.6-1.9,2.6-4,5.9s-3.6,5.9-4.5,7.6
	c-0.7,1.3-1.3,4.1-1.9,8.2l-1,7.2c-3.3,8.9-5.2,13.6-5.6,14c-1,1.1-2.3,1.6-3.8,1.6l-2.6-0.4h-0.1h-0.1c-0.2,0.2-0.5,0.4-0.8,0.4
	c-0.9,0-2-0.7-3-2.1c-0.6-0.9-1-1.5-1-1.8c0,0,1.1-1.9,3.3-5.5c0.7-1.2,2-5.4,3.7-12.6c2-8.7,3-16.4,3-23.3c0-3.6-0.1-6.3-0.3-7.9
	C490.9,78.9,488.6,76.4,484.1,74.1z"/>
<path d="M537.6,159.1c5,0.7,8.2,1,9.7,1c3,0,6.2-0.9,9.6-2.8c6.6-3.8,10.9-10,12.9-18.6l5.5-23.4l1.6-7.8
	c-2.9,2.4-7.2,6.2-12.8,11.2c-2.7,2.5-5.5,4.4-8.4,5.9c-0.4,0.2-0.8,0.3-1.1,0.3c-0.7,0-1.6-0.5-2.5-1.5c-1.5-1.6-2.3-3.5-2.3-5.7
	c0-2.6,0.6-7,1.7-13.2c1.1-6.2,1.7-12,1.7-17.4c0-3.6-0.8-6.1-2.5-7.4c-0.3-0.2-3.7-0.7-10-1.3c-0.3,0-0.4-0.2-0.4-0.6
	c0-0.9,1.3-1.4,4-1.4c5.5,0,9.7,1.5,12.5,4.6c2.2,2.3,3.3,5.3,3.3,8.8c0,1.5-0.1,3.2-0.3,5.1c-0.9,7.4-1.3,13.6-1.3,18.4
	c0,0.8,0.3,1.6,0.9,2.5l19.8-17.9l9.3-22.1c0.9-0.7,1.8-1.1,2.5-1.1c1.4,0,2,0.5,1.9,1.4l-0.1,1.3l0.6,4.6c0.1,1.1-2.4,5-7.6,11.7
	c-1.2,1.6-3.1,11.7-5.6,30.3l-2.7,19.5c-1.2,8.7-4.1,15.1-8.8,19c-3,2.6-7.2,3.9-12.4,3.9C548.1,166.6,541.9,164.1,537.6,159.1z"/>
<path d="M411.2,318c-1.4,1.3-2.5,2.5-3.1,3.3c-0.9,1.3-1.6,2.1-2.1,2.4s-1.2,0.4-2.2,0.4c-2.5,0-4.7-0.1-6.8-0.3
	c-2.3-0.2-4-1-5.3-2.5c-2.2-2.7-3.9-7.7-5-15.2c-2.6,4.8-5.5,8.3-8.8,10.6c-5.8,4-11,5.9-15.5,5.9c-2.6,0-5.2-1.4-7.6-4.2
	c-3.1-3.5-4.6-8-4.6-13.4c0-8.2,3-15.7,9.1-22.4c4.3-4.7,11.1-8.7,20.4-12c4.6-1.6,8.1-2.5,10.6-2.5c0.6,0,1.3,0.2,2,0.6
	c1.5,0.8,2.3,1.2,2.4,1.2l3.3-0.4c0.5,0.6,0.8,1.2,0.8,1.7c0,0.2-0.1,0.6-0.1,1c-2.3,9.5-3.5,16.8-3.5,21.8s0.7,10.3,2.1,16.1
	c1.3,5.8,3.8,8.8,7.3,8.8C406.4,319,408.6,318.7,411.2,318z"/>
<path d="M477,240.1c1.5-0.2,2.8-0.4,3.8-0.4c0.7,0,1.9,0.2,3.5,0.7c-1.7,3-3.1,5.3-4.1,6.8c-5,7.6-7.7,11.9-8.2,13.1
	c-0.8,1.9-2.7,7.1-5.6,15.4c-0.6,1.7-1,4-1.3,6.9l-0.6,5.9c-1.3,7.6-2,12.2-2,13.6c0,3.6,0.5,7.7,1.6,12.3c0.2,1.1,1.1,2.6,2.5,4.5
	l2.9,3.9c0.1,0.2,0.2,0.6,0.2,1c0,0.8-0.7,1.7-2.1,2.6s-2.8,1.4-4,1.4c-1.3,0-2.4-0.5-3.3-1.6c-0.2-0.2-1.2-1.4-2.7-3.3
	c-0.9-1.2-1.7-3.2-2.4-6.1c-6.8,4-12.2,6-16.1,6c-4.1,0-7.5-1.5-10-4.5c-2.4-2.7-3.6-5.8-3.6-9.3c0-6.2,2.5-12,7.4-17.5
	c3.6-4.1,7.4-6.5,11.3-7.2c8.6-1.5,13-2.4,13.1-2.6c0.7-0.8,1.7-4.1,3-10c0.5-2.4,2.3-6.1,5.3-11c4.5-7.1,7.6-11.7,9.6-13.7
	c2.2-2.3,3.3-3.9,3.3-4.7C478.5,241.9,478,241.1,477,240.1z"/>
<path d="M549.6,306.3c-1,5-2.7,8.5-5.1,10.4c-6,5-13.8,7.4-23.5,7.4c-2.1,0-4.1-0.2-6-0.7c-3.3-0.8-5.8-1.3-7.7-1.4
	c-1.9-0.1-4.3-2.1-7.1-5.9c-4.5-6.1-6.7-12.4-6.7-18.9c0-3.4,2.6-7.5,7.9-12.6c4-3.8,7.5-6.5,10.5-8.3c4.6-2.7,10.4-4.1,17.7-4.1
	c5.8,0,10.7,1.3,14.8,3.8c1.4,0.8,3.4,3.3,6.1,7.5c1.3,2.1,2,3.9,2,5.5l-0.1,2.6c0.1,1.7,0.1,2.6,0.1,2.7c0,0.7-0.3,1.1-0.8,1.1
	c-1.1,0-3.4-0.6-6.9-1.8c-2.7-0.9-7.3-1.4-13.7-1.4c-9.6,0-17.7,1-24.5,3c-4.5,1.3-6.8,2.9-6.8,4.6c0,3.3,1.7,6.9,5.2,10.8
	c2.8,3.1,7.5,4.7,14.1,4.7c9.1,0,18-2.3,26.6-6.8C546.7,308,548,307.2,549.6,306.3z"/>
<path d="M301.8,145.9l0.9-0.1c2.2,1.5,3.4,3,3.7,4.5c0.2,1.4,0.5,3.2,0.7,5.3l1.5,16.2l-0.2,1.1c5.9,0.3,9.1,0.5,9.6,0.6
	c2.3,0.6,4.1,2.1,5.6,4.5c0.8,1.3,1.2,2.4,1.2,3.4c0,2.7-1.1,5.4-3.3,8.1c-0.3,0.3-0.6,0.6-1,0.8s-1.7,0.8-4,1.7
	c-3.4,1.5-5.8,2.5-7.2,2.9c-1.4,0.4-3.1,0.6-5.2,0.6c-0.7,0-1.4,0-2-0.1c-1-0.1-1.7-0.2-2.1-0.2c-0.6,0-1.4,0.3-2.4,0.8
	c-0.1-0.4-0.3-1.1-0.6-1.9c3.2-9,4.9-14,5.1-14.9c1.2-5.7,1.9-14.1,1.9-25.3c0-2.2-0.1-3.8-0.4-4.7
	C303,148.4,302.5,147.3,301.8,145.9z"/>
<path d="M333.7,213c3.1,0.4,5.1,0.6,6,0.6c1.9,0,3.9-0.6,6-1.8c4.1-2.4,6.8-6.2,8.1-11.6l3.4-14.6l1-4.9c-1.8,1.5-4.5,3.9-8,7
	c-1.7,1.5-3.5,2.8-5.2,3.7c-0.2,0.1-0.5,0.2-0.7,0.2c-0.5,0-1-0.3-1.6-0.9c-1-1-1.4-2.2-1.4-3.6c0-1.6,0.4-4.4,1.1-8.3
	c0.7-3.9,1.1-7.5,1.1-10.9c0-2.3-0.5-3.8-1.6-4.6c-0.2-0.2-2.3-0.4-6.2-0.8c-0.2,0-0.3-0.2-0.3-0.4c0-0.6,0.8-0.9,2.5-0.9
	c3.4,0,6,1,7.8,2.9c1.4,1.5,2,3.3,2,5.5c0,1-0.1,2-0.2,3.2c-0.6,4.6-0.8,8.5-0.8,11.5c0,0.5,0.2,1,0.6,1.5l12.4-11.2l5.8-13.8
	c0.6-0.5,1.1-0.7,1.6-0.7c0.9,0,1.3,0.3,1.2,0.9l-0.1,0.8l0.4,2.9c0.1,0.7-1.5,3.1-4.7,7.3c-0.8,1-1.9,7.3-3.5,18.9l-1.7,12.2
	c-0.7,5.4-2.6,9.4-5.5,11.9c-1.9,1.6-4.5,2.4-7.8,2.4C340.2,217.7,336.4,216.2,333.7,213z"/>
<path d="M28.4,58C37-3.3,108,10.3,145.1,37.7c22.7,6.4,40.8-10.5,60.5-13.3c10.6,1.7,27.7,11.9,12.6,19.8
	c-11.7,6.1-32.3,7.9-41.5,14.5c-4.9,6.5-18.7,13.6-21.4,25.8c-8.8,13.5,3.2,4.1,6.9,9c-7.9,3-10.8,6.6-8.9,21.2
	c6.7,27.7,29,53.5,29.6,82.2c1.7,51.4-58.9,59.4-98.5,56.8c-22.2,0.3-44.4,1.8-59.1-14.6c-3.4-3.7-3.4,1.1-5.2-3.2
	c-0.6-2.8,0.3-14.9,4.7-16.5c55.4-41.6,6.5-39,30.4-64.5c16.6-3.2,37.2,12.2,49.4,9.2c8.3-5.3-1.6,12.6-11.2,8.4
	c-9.2,3.4-28.5-14.9-27.6-5.4c0.4,12.2,9.6,28.3-4.2,39c-12.7,3.4-50.2,29.6-16.5,29.4c39.8-3.2,99.8-1.5,116.7-47.1
	c-10.1-24.5-28.2-48.1-25.8-76.3c-2.8-27.8,19-44.3,34.9-61.8c-13.4,3.8-27.2,0-39.7-7.2C61-11.6,13.8,59.9,67.6,68.1
	c10.1-2.4,18.1-19.1,4-22.8c-6.7-0.3-19.3,15-16.7,0.7c-1.6-22.7,40.9-22.7,44,3.1c1.1,7.5,5.1-4.2,5.4,1.5
	c-5.3,2.3-1.4,12-7.5,13.4C97.7,91.9,35.3,91.7,28.4,58z"/>
<path d="M193.7,253.9c8.7-61.3,79.6-47.7,116.7-20.3c22.7,6.4,40.8-10.5,60.5-13.3c10.6,1.7,27.7,11.9,12.6,19.8
	c-11.7,6.1-32.3,7.9-41.5,14.5c-4.9,6.5-18.7,13.6-21.4,25.8c-8.8,13.5,3.2,4.1,6.9,9c-7.9,3-10.8,6.6-8.9,21.2
	c6.7,27.7,29,53.5,29.6,82.2c1.7,51.4-58.9,59.4-98.5,56.8c-22.2,0.3-44.4,1.8-59.1-14.6c-3.4-3.7-3.4,1.1-5.2-3.2
	c-0.6-2.8,0.3-14.9,4.7-16.5c55.4-41.6,6.5-39,30.4-64.5c16.6-3.2,37.2,12.2,49.4,9.2c8.3-5.3-1.6,12.6-11.2,8.4
	c-9.2,3.4-28.5-14.9-27.6-5.4c0.4,12.2,9.6,28.3-4.2,39c-12.7,3.4-50.2,29.6-16.5,29.4c39.8-3.2,99.8-1.5,116.7-47.1
	c-10.1-24.5-28.2-48.1-25.8-76.3c-2.8-27.8,19-44.3,34.9-61.8c-13.4,3.8-27.2,0-39.7-7.2c-70.4-54.6-117.6,16.9-63.9,25.1
	c10.1-2.4,18.1-19.1,4-22.8c-6.7-0.3-19.3,15-16.7,0.7c-1.6-22.7,40.9-22.7,44,3.1c1.1,7.5,5.1-4.2,5.4,1.5
	c-5.3,2.3-1.4,12-7.5,13.4C263.1,287.7,200.6,287.6,193.7,253.9z"/>
</svg>
