<?xml version="1.0" encoding="utf-8"?>
<!-- Generator: Adobe Illustrator 25.4.3, SVG Export Plug-In . SVG Version: 6.00 Build 0)  -->
<svg version="1.1" id="Layer_1" xmlns="http://www.w3.org/2000/svg" xmlns:xlink="http://www.w3.org/1999/xlink" x="0px" y="0px"
	 viewBox="0 0 618.1 470.3" style="enable-background:new 0 0 618.1 470.3;" xml:space="preserve">
<g id="Creepy_copy_4">
	<g id="Insides">
		<path d="M192.6,96.5c0.8,0.5,1.5,0.7,2.1,0.7c0.5,0,3.5-0.6,8.9-1.8c3.9-0.9,9.2-1.3,16-1.3c3.2,0,7.5,0.3,12.9,0.8
			c-0.7-3.2-1.9-5.4-3.6-6.7c-4.4-3.5-9.4-5.3-15.1-5.3c-3.1,0-6.5,1.2-10.2,3.6C201.1,88.2,197.4,91.5,192.6,96.5z"/>
		<path d="M356.8,96.5c0.8,0.5,1.5,0.7,2.1,0.7c0.5,0,3.5-0.6,8.9-1.8c3.9-0.9,9.2-1.3,16-1.3c3.2,0,7.5,0.3,12.9,0.8
			c-0.7-3.2-1.9-5.4-3.6-6.7c-4.4-3.5-9.4-5.3-15.1-5.3c-3.1,0-6.5,1.2-10.2,3.6C365.3,88.2,361.7,91.5,356.8,96.5z"/>
		<path d="M391.6,277.4v-0.2V277c0-0.2-0.3-0.5-1-0.8c-2.2-1.1-4.4-1.6-6.6-1.6c-2.7,0-6.7,1.4-12,4.2c-6.9,3.8-11.6,9.2-14,16.3
			c-1.4,4.3-2.2,7.7-2.2,10.4c0,2.5,0.9,4.9,2.6,7.2c1.8,2.4,4,3.6,6.8,3.6c2.9,0,6.4-1.7,10.3-5.1c6.2-5.4,10.8-14.3,13.8-26.7
			c0.6-2.4,1.1-4.1,1.6-5.1C391.4,278.5,391.6,277.8,391.6,277.4z"/>
		<path d="M453.2,286.6c-0.1,0-0.2,0-0.4,0.1c-0.1,0.1-1.5,0.3-4,0.9c-11,2.4-16.5,8-16.5,16.8c0,4.3,0.9,7.7,2.8,10.5
			c0.9,1.3,2,1.8,3.3,1.6c6.6-1.2,10.7-2.1,12.2-2.5c1.6-0.4,2.6-0.9,3.2-1.6l0.1-0.2l-0.9-6.7l0.1-2.4l0.1-4.5l1.6-10.5
			C454.9,287.1,454.3,286.6,453.2,286.6z"/>
		<path d="M503.6,290.7c0.8,0.5,1.5,0.7,2.1,0.7c0.5,0,3.5-0.6,8.9-1.8c3.9-0.9,9.2-1.3,16-1.3c3.2,0,7.5,0.3,12.9,0.8
			c-0.7-3.2-1.9-5.4-3.6-6.7c-4.4-3.5-9.4-5.3-15.1-5.3c-3.1,0-6.5,1.2-10.2,3.6C512,282.4,508.4,285.7,503.6,290.7z"/>
		<path d="M305.7,188.4c1.9-0.2,3.2-0.5,4.1-1c1.4-0.7,2.2-1,2.5-1h1.3c0.7,0,1.7-0.7,2.9-2.1c1.3-1.6,2-3,2-4.3
			c0-0.6-0.4-1.3-1.1-1.9c-1.3-1.1-2.6-1.6-3.9-1.6c-3.5,0.2-5.3,0.3-5.4,0.4c-0.2,0.2-0.4,2.3-0.8,6.4c-0.1,0.7-0.4,1.9-1,3.6
			C306.1,187.3,305.9,187.8,305.7,188.4z"/>
		<path d="M91.5,45.2c3.4,23.7-26.9,43.6-54.8,15.1C42.6,88.8,104.5,82.3,91.5,45.2z"/>
		<path d="M69.6,35.1c-19.7,7.1,4.7,3.4,13.2,10.5C83.2,39.5,75.1,34,69.6,35.1z"/>
		<path d="M214.8,34.7c-7.5-11.1-7.4,7-16.4,6.7C198.9,46.8,214.1,39.7,214.8,34.7z"/>
		<path d="M144.2,111.2c-1-1.5-3.5,12.5-0.8,13.6C147.3,123.4,144.9,115.1,144.2,111.2z"/>
		<path d="M98.2,237.6c13.8-4.9,1.3-1.8-4.1-2C86.9,236.6,95.3,237.6,98.2,237.6z"/>
		<path d="M120.5,232.6c8.7-0.9-2.8-3.6-6.4-0.6C112.3,234.9,118.7,231.7,120.5,232.6z"/>
		<path d="M107.5,247.6c2.9-3,7.2,1.1,9.2-2.9C114.5,243.4,104.6,246.7,107.5,247.6z"/>
		<path d="M164.7,43.9c-1-0.1-1.5,0.7-1.1,1.6C164.8,50.4,172.2,42.5,164.7,43.9z"/>
		<path d="M178.4,40.6c-1.1-2.1-2.9,1.9-3.7,2.8C174.5,46,179.1,42.9,178.4,40.6z"/>
		<path d="M69.1,245.9c-4.1,0.7,2.7,3,4.5,1.7C73.7,245.5,70.5,246.2,69.1,245.9z"/>
		<path d="M156.4,228.1c3.1,4.6,0.7-1.1,2.5-3.3C159.2,222.9,155.2,226.2,156.4,228.1z"/>
		<path d="M110.3,232.5c-1.2,0.4-5.2,1.8-2.4,2.8C109.5,234.8,114.3,232.7,110.3,232.5z"/>
		<path d="M138.5,225.5c0.6-0.4,1.5-0.2,2-1C139,222.8,135.2,223.9,138.5,225.5z"/>
		<path d="M56.4,200.3c0.6-1.4,2.6-2.5,1.7-3.7C56.8,196.6,55.8,199.1,56.4,200.3z"/>
		<path d="M77.9,246c2.1,0,3.3-0.8,0.9-1.4C77.9,243.2,76.8,245.5,77.9,246z"/>
		<path d="M191.6,46.2c1.2-0.8,2.9-1.5,0.9-2.1C191.2,44,190.2,45.1,191.6,46.2z"/>
		<path d="M130.5,228.5c-0.7-1.9-1.8-0.5-1.8,0.7C129.1,230.7,129.8,229.2,130.5,228.5z"/>
		<path d="M158.2,45.6c1.5-0.2-1.9-2.2-2.4-1.1C156.3,45.4,157.3,45.3,158.2,45.6z"/>
		<path d="M147.3,232.2c1.3-1.1,0.4-1.3-0.3-2.3C145.9,230.7,146.7,231.1,147.3,232.2z"/>
		<path d="M61.3,193.4c-0.3-0.9-2.2,1.4-1.5,1.7C60.5,195.1,61.3,194.3,61.3,193.4z"/>
		<path d="M141.4,232.3c-0.7-0.9-1.2-1-1.5,0C140.2,233.4,140.7,233.2,141.4,232.3z"/>
		<path d="M146.8,235.3c1.1,0.9,1.3,0.1,2.1-0.5C148.4,233.9,147.7,235,146.8,235.3z"/>
		<path d="M98.6,245.9c-0.8,0.7-0.9,1-0.2,1.8C99,247,99.5,246.9,98.6,245.9z"/>
		<path d="M65.5,239.9c-0.5,0.7-1.4,1.1-0.5,1.6C65.6,240.9,66.3,240.7,65.5,239.9z"/>
		<path d="M105.9,243.6c0.4,1.1,0.8,0.2,1.3-0.3C106.8,242.4,106.4,243.1,105.9,243.6z"/>
		<path d="M132.7,39.5c0.9,0.8,1.1,0.5,1.8,0C134,38.7,133.6,39.2,132.7,39.5z"/>
		<path d="M256.8,241c3.4,23.7-26.9,43.6-54.8,15.1C208,284.7,269.9,278.1,256.8,241z"/>
		<path d="M235,231c-19.7,7.1,4.7,3.4,13.2,10.5C248.5,235.4,240.5,229.9,235,231z"/>
		<path d="M380.1,230.6c-7.5-11.1-7.4,7-16.4,6.7C364.2,242.7,379.5,235.6,380.1,230.6z"/>
		<path d="M309.5,307.1c-1-1.5-3.5,12.5-0.8,13.6C312.7,319.2,310.3,310.9,309.5,307.1z"/>
		<path d="M263.5,433.4c13.8-4.9,1.3-1.8-4.1-2C252.3,432.5,260.6,433.5,263.5,433.4z"/>
		<path d="M285.8,428.5c8.7-0.9-2.8-3.6-6.4-0.6C277.6,430.7,284.1,427.6,285.8,428.5z"/>
		<path d="M272.9,443.5c2.9-3,7.2,1.1,9.2-2.9C279.8,439.3,269.9,442.5,272.9,443.5z"/>
		<path d="M330.1,239.8c-1-0.1-1.5,0.7-1.1,1.6C330.2,246.3,337.6,238.4,330.1,239.8z"/>
		<path d="M343.7,236.5c-1.1-2.1-2.9,1.9-3.7,2.8C339.9,241.9,344.5,238.8,343.7,236.5z"/>
		<path d="M234.4,441.8c-4.1,0.7,2.7,3,4.5,1.7C239,441.4,235.9,442,234.4,441.8z"/>
		<path d="M321.8,424c3.1,4.6,0.7-1.1,2.5-3.3C324.6,418.7,320.6,422.1,321.8,424z"/>
		<path d="M275.7,428.4c-1.2,0.4-5.2,1.8-2.4,2.8C274.9,430.7,279.6,428.6,275.7,428.4z"/>
		<path d="M303.9,421.4c0.6-0.4,1.5-0.2,2-1C304.4,418.6,300.6,419.8,303.9,421.4z"/>
		<path d="M221.8,396.2c0.6-1.4,2.6-2.5,1.7-3.7C222.2,392.5,221.1,395,221.8,396.2z"/>
		<path d="M243.3,441.9c2.1,0,3.3-0.8,0.9-1.4C243.3,439,242.2,441.3,243.3,441.9z"/>
		<path d="M357,242.1c1.2-0.8,2.9-1.5,0.9-2.1C356.6,239.8,355.6,241,357,242.1z"/>
		<path d="M295.8,424.3c-0.7-1.9-1.8-0.5-1.8,0.7C294.5,426.6,295.2,425.1,295.8,424.3z"/>
		<path d="M323.6,241.5c1.5-0.2-1.9-2.2-2.4-1.1C321.6,241.2,322.7,241.2,323.6,241.5z"/>
		<path d="M312.7,428c1.3-1.1,0.4-1.3-0.3-2.3C311.3,426.6,312.1,427,312.7,428z"/>
		<path d="M226.7,389.3c-0.3-0.9-2.2,1.4-1.5,1.7C225.8,391,226.7,390.2,226.7,389.3z"/>
		<path d="M306.8,428.2c-0.7-0.9-1.2-1-1.5,0C305.6,429.3,306.1,429.1,306.8,428.2z"/>
		<path d="M312.2,431.1c1.1,0.9,1.3,0.1,2.1-0.5C313.8,429.8,313,430.8,312.2,431.1z"/>
		<path d="M264,441.8c-0.8,0.7-0.9,1-0.2,1.8C264.4,442.9,264.9,442.7,264,441.8z"/>
		<path d="M230.9,435.8c-0.5,0.7-1.4,1.1-0.5,1.6C230.9,436.8,231.6,436.6,230.9,435.8z"/>
		<path d="M298,235.4c0.9,0.8,1.1,0.5,1.8,0C299.3,234.5,299,235,298,235.4z"/>
		<path d="M271.3,439.4c0.4,1.1,0.8,0.2,1.3-0.3C272.2,438.3,271.8,439,271.3,439.4z"/>
	</g>
</g>
</svg>
