<?xml version="1.0" encoding="utf-8"?>
<!-- Generator: Adobe Illustrator 25.4.3, SVG Export Plug-In . SVG Version: 6.00 Build 0)  -->
<svg version="1.1" xmlns="http://www.w3.org/2000/svg" xmlns:xlink="http://www.w3.org/1999/xlink" x="0px" y="0px"
	 viewBox="0 0 618.1 470.3" style="enable-background:new 0 0 618.1 470.3;" xml:space="preserve">
<style type="text/css">
	.st0{display:none;}
	.st1{display:inline;}
</style>
<g id="Creepy_copy_3" class="st0">
	<path class="st1" d="M238.7,112.1c-1,5-2.7,8.5-5.1,10.4c-6,5-13.8,7.4-23.5,7.4c-2.1,0-4.1-0.2-6-0.7c-3.3-0.8-5.8-1.3-7.7-1.4
		c-1.9-0.1-4.3-2.1-7.1-5.9c-4.5-6.1-6.7-12.4-6.7-18.9c0-3.4,2.6-7.5,7.9-12.6c4-3.8,7.5-6.5,10.5-8.3c4.6-2.7,10.4-4.1,17.7-4.1
		c5.8,0,10.7,1.3,14.8,3.8c1.4,0.8,3.4,3.3,6.1,7.5c1.3,2.1,2,3.9,2,5.5l-0.1,2.6c0.1,1.7,0.1,2.6,0.1,2.7c0,0.7-0.3,1.1-0.8,1.1
		c-1.1,0-3.4-0.6-6.9-1.8c-2.7-0.9-7.3-1.4-13.7-1.4c-9.6,0-17.7,1-24.5,3c-4.5,1.3-6.8,2.9-6.8,4.6c0,3.3,1.7,6.9,5.2,10.8
		c2.8,3.1,7.5,4.7,14.1,4.7c9.1,0,18-2.3,26.6-6.8C235.8,113.7,237.1,113,238.7,112.1z M192.6,96.5c0.8,0.5,1.5,0.7,2.1,0.7
		c0.5,0,3.5-0.6,8.9-1.8c3.9-0.9,9.2-1.3,16-1.3c3.2,0,7.5,0.3,12.9,0.8c-0.7-3.2-1.9-5.4-3.6-6.7c-4.4-3.5-9.4-5.3-15.1-5.3
		c-3.1,0-6.5,1.2-10.2,3.6C201.1,88.2,197.4,91.5,192.6,96.5z M255.5,68.7c0.5-0.2,1-0.3,1.3-0.3c1.5,0,3.6,1.3,6.1,3.9
		c1.8,1.8,3.2,4.1,4.3,6.9c3.5,9.1,5.6,15.1,6.2,18.2c0.8,3.7,1.8,9.4,2.9,17.2l13.7-29.6c3.4-7.4,5.1-11.5,5.1-12.3
		c0-0.1-0.1-0.3-0.1-0.6c-0.8-1.6-1.2-2.6-1.2-2.8c0-0.6,0.4-0.9,1.1-0.9c0.7,0,1.8,0.5,3.2,1.6c1.2,0.9,2,1.9,2.3,3l7,26l4.3,16.7
		l11.7-28.8c2-4.9,4-8.8,6.2-11.7c1.7-2.4,2.5-4.1,2.5-5.1c0-0.6-0.4-1.2-1.3-1.9c1.5-0.3,2.7-0.4,3.6-0.4c1.2,0,1.9,0.4,1.9,1.3
		c0,0.8-0.8,2.5-2.5,5.2c-2.8,4.7-4.7,8.4-5.5,11.2l-6.6,21.6l-3.6,10.7c-0.9,4.7-1.6,7.4-1.9,8.1c-1.6,3.7-3.7,5.6-6.3,5.6
		c-1.2,0-2.2-0.6-3.1-1.7c-0.6-0.7-0.9-1.3-1-1.7l-2.2-9.2c-0.1-0.5-0.5-1.8-1.3-3.9c-0.3-1.1-0.6-2-0.7-2.7l-4.8-33l-8.9,26.3
		l-1.6,4.2c-0.1,1.4-0.2,2.3-0.4,2.8c-0.2,0.5-0.8,1.3-1.8,2.4c0.1,0.2,0.2,0.4,0.2,0.6c0,0.1-0.4,0.9-1.2,2.5l-1.6,3.3l-1.7,2.8
		c-0.7,1.8-1.3,2.9-1.6,3.3c-0.5,0.5-1.7,1-3.5,1.5l-0.1,0.1l-2.1-1c-0.8-0.3-1.2-0.6-1.3-0.7c-0.1-0.1-0.7-2.3-1.9-6.5
		c0,0,0.1-0.7,0.4-1.9c0.1-0.6,0.2-1.1,0.2-1.3c0-0.8-0.8-7.2-2.5-18.9c-0.7-4.8-2-9.8-3.8-15.1C262.3,78.6,259.4,73.7,255.5,68.7z
		 M402.9,112.1c-1,5-2.7,8.5-5.1,10.4c-6,5-13.8,7.4-23.5,7.4c-2.1,0-4.1-0.2-6-0.7c-3.3-0.8-5.8-1.3-7.7-1.4
		c-1.9-0.1-4.3-2.1-7.1-5.9c-4.5-6.1-6.7-12.4-6.7-18.9c0-3.4,2.6-7.5,7.9-12.6c4-3.8,7.5-6.5,10.5-8.3c4.6-2.7,10.4-4.1,17.7-4.1
		c5.8,0,10.7,1.3,14.8,3.8c1.4,0.8,3.4,3.3,6.1,7.5c1.3,2.1,2,3.9,2,5.5l-0.1,2.6c0.1,1.7,0.1,2.6,0.1,2.7c0,0.7-0.3,1.1-0.8,1.1
		c-1.1,0-3.4-0.6-6.9-1.8c-2.7-0.9-7.3-1.4-13.7-1.4c-9.6,0-17.7,1-24.5,3c-4.5,1.3-6.8,2.9-6.8,4.6c0,3.3,1.7,6.9,5.2,10.8
		c2.8,3.1,7.5,4.7,14.1,4.7c9.1,0,18-2.3,26.6-6.8C400,113.7,401.3,113,402.9,112.1z M356.8,96.5c0.8,0.5,1.5,0.7,2.1,0.7
		c0.5,0,3.5-0.6,8.9-1.8c3.9-0.9,9.2-1.3,16-1.3c3.2,0,7.5,0.3,12.9,0.8c-0.7-3.2-1.9-5.4-3.6-6.7c-4.4-3.5-9.4-5.3-15.1-5.3
		c-3.1,0-6.5,1.2-10.2,3.6C365.3,88.2,361.7,91.5,356.8,96.5z M433,61.3c1.4,1.4,2.3,2.4,2.6,3c0.3,0.6,0.7,1.8,1,3.6
		c1.5,9.5,2.2,17.6,2.2,24.3c0,2.5-0.6,8.8-1.8,18.9c-0.4,3.5-0.7,5.5-0.9,6.2c-0.7,2.3-2.5,5.3-5.5,9.2c5.6-0.4,9.7-0.7,12.3-0.7
		h7.9c4.4,0,8.2-1,11.3-3c1.8-1.1,3.9-3.5,6.2-7c0.1,1.1,0.1,2.1,0.1,2.9c0,2.2-1.4,5.3-4.3,9.3c-2.3,3.2-6.2,4.8-11.9,4.8
		c-0.4,0-4.8-0.2-13.3-0.7l-2.2-0.1c-7.6,0.1-11.9,0.5-13.1,1c-1.2,0.5-2.1,0.8-2.7,0.8c-0.3,0-0.6-0.6-1-1.9
		c-0.5-1.6-0.8-2.5-0.8-2.7c0-0.6,1.7-3.2,5.1-7.6c2.7-3.5,5-9.1,7.1-16.6c1.8-7.1,2.7-17.2,2.7-30.1v-1.9
		C434.1,69.7,433.7,65.7,433,61.3z M484.1,74.1c1-0.1,1.8-0.4,2.4-0.8c4.7,1.7,7.7,3.7,9,6c1.6,2.8,2.7,8.1,3.3,15.7
		c3.9-4.9,6.4-7.9,7.7-9l12.1-10.3c0.7-0.6,1.9-3,3.5-7.3c3.1,1.9,4.6,3.6,4.6,5.2c0,0.3-5.6,5.9-16.8,16.6c-0.6,0.6-1.9,2.6-4,5.9
		c-2.1,3.3-3.6,5.9-4.5,7.6c-0.7,1.3-1.3,4.1-1.9,8.2l-1,7.2c-3.3,8.9-5.2,13.6-5.6,14c-1,1.1-2.3,1.6-3.8,1.6l-2.6-0.4h-0.1h-0.1
		c-0.2,0.2-0.5,0.4-0.8,0.4c-0.9,0-2-0.7-3-2.1c-0.6-0.9-1-1.5-1-1.8c0,0,1.1-1.9,3.3-5.5c0.7-1.2,2-5.4,3.7-12.6
		c2-8.7,3-16.4,3-23.3c0-3.6-0.1-6.3-0.3-7.9C490.9,78.9,488.6,76.4,484.1,74.1z M537.6,159.1c5,0.7,8.2,1,9.7,1
		c3,0,6.2-0.9,9.6-2.8c6.6-3.8,10.9-10,12.9-18.6l5.5-23.4l1.6-7.8c-2.9,2.4-7.2,6.2-12.8,11.2c-2.7,2.5-5.5,4.4-8.4,5.9
		c-0.4,0.2-0.8,0.3-1.1,0.3c-0.7,0-1.6-0.5-2.5-1.5c-1.5-1.6-2.3-3.5-2.3-5.7c0-2.6,0.6-7,1.7-13.2c1.1-6.2,1.7-12,1.7-17.4
		c0-3.6-0.8-6.1-2.5-7.4c-0.3-0.2-3.7-0.7-10-1.3c-0.3,0-0.4-0.2-0.4-0.6c0-0.9,1.3-1.4,4-1.4c5.5,0,9.7,1.5,12.5,4.6
		c2.2,2.3,3.3,5.3,3.3,8.8c0,1.5-0.1,3.2-0.3,5.1c-0.9,7.4-1.3,13.6-1.3,18.4c0,0.8,0.3,1.6,0.9,2.5l19.8-17.9l9.3-22.1
		c0.9-0.7,1.8-1.1,2.5-1.1c1.4,0,2,0.5,1.9,1.4l-0.1,1.3l0.6,4.6c0.1,1.1-2.4,5-7.6,11.7c-1.2,1.6-3.1,11.7-5.6,30.3l-2.7,19.5
		c-1.2,8.7-4.1,15.1-8.8,19c-3,2.6-7.2,3.9-12.4,3.9C548.1,166.6,541.9,164.1,537.6,159.1z M411.2,318c-1.4,1.3-2.5,2.5-3.1,3.3
		c-0.9,1.3-1.6,2.1-2.1,2.4c-0.5,0.3-1.2,0.4-2.2,0.4c-2.5,0-4.7-0.1-6.8-0.3c-2.3-0.2-4-1-5.3-2.5c-2.2-2.7-3.9-7.7-5-15.2
		c-2.6,4.8-5.5,8.3-8.8,10.6c-5.8,4-11,5.9-15.5,5.9c-2.6,0-5.2-1.4-7.6-4.2c-3.1-3.5-4.6-8-4.6-13.4c0-8.2,3-15.7,9.1-22.4
		c4.3-4.7,11.1-8.7,20.4-12c4.6-1.6,8.1-2.5,10.6-2.5c0.6,0,1.3,0.2,2,0.6c1.5,0.8,2.3,1.2,2.4,1.2l3.3-0.4c0.5,0.6,0.8,1.2,0.8,1.7
		c0,0.2-0.1,0.6-0.1,1c-2.3,9.5-3.5,16.8-3.5,21.8c0,5,0.7,10.3,2.1,16.1c1.3,5.8,3.8,8.8,7.3,8.8C406.4,319,408.6,318.7,411.2,318z
		 M391.6,277.4v-0.2V277c0-0.2-0.3-0.5-1-0.8c-2.2-1.1-4.4-1.6-6.6-1.6c-2.7,0-6.7,1.4-12,4.2c-6.9,3.8-11.6,9.2-14,16.3
		c-1.4,4.3-2.2,7.7-2.2,10.4c0,2.5,0.9,4.9,2.6,7.2c1.8,2.4,4,3.6,6.8,3.6c2.9,0,6.4-1.7,10.3-5.1c6.2-5.4,10.8-14.3,13.8-26.7
		c0.6-2.4,1.1-4.1,1.6-5.1C391.4,278.5,391.6,277.8,391.6,277.4z M477,240.1c1.5-0.2,2.8-0.4,3.8-0.4c0.7,0,1.9,0.2,3.5,0.7
		c-1.7,3-3.1,5.3-4.1,6.8c-5,7.6-7.7,11.9-8.2,13.1c-0.8,1.9-2.7,7.1-5.6,15.4c-0.6,1.7-1,4-1.3,6.9l-0.6,5.9
		c-1.3,7.6-2,12.2-2,13.6c0,3.6,0.5,7.7,1.6,12.3c0.2,1.1,1.1,2.6,2.5,4.5l2.9,3.9c0.1,0.2,0.2,0.6,0.2,1c0,0.8-0.7,1.7-2.1,2.6
		c-1.4,0.9-2.8,1.4-4,1.4c-1.3,0-2.4-0.5-3.3-1.6c-0.2-0.2-1.2-1.4-2.7-3.3c-0.9-1.2-1.7-3.2-2.4-6.1c-6.8,4-12.2,6-16.1,6
		c-4.1,0-7.5-1.5-10-4.5c-2.4-2.7-3.6-5.8-3.6-9.3c0-6.2,2.5-12,7.4-17.5c3.6-4.1,7.4-6.5,11.3-7.2c8.6-1.5,13-2.4,13.1-2.6
		c0.7-0.8,1.7-4.1,3-10c0.5-2.4,2.3-6.1,5.3-11c4.5-7.1,7.6-11.7,9.6-13.7c2.2-2.3,3.3-3.9,3.3-4.7C478.5,241.9,478,241.1,477,240.1
		z M453.2,286.6c-0.1,0-0.2,0-0.4,0.1c-0.1,0.1-1.5,0.3-4,0.9c-11,2.4-16.5,8-16.5,16.8c0,4.3,0.9,7.7,2.8,10.5
		c0.9,1.3,2,1.8,3.3,1.6c6.6-1.2,10.7-2.1,12.2-2.5c1.6-0.4,2.6-0.9,3.2-1.6l0.1-0.2l-0.9-6.7l0.1-2.4l0.1-4.5l1.6-10.5
		C454.9,287.1,454.3,286.6,453.2,286.6z M549.6,306.3c-1,5-2.7,8.5-5.1,10.4c-6,5-13.8,7.4-23.5,7.4c-2.1,0-4.1-0.2-6-0.7
		c-3.3-0.8-5.8-1.3-7.7-1.4c-1.9-0.1-4.3-2.1-7.1-5.9c-4.5-6.1-6.7-12.4-6.7-18.9c0-3.4,2.6-7.5,7.9-12.6c4-3.8,7.5-6.5,10.5-8.3
		c4.6-2.7,10.4-4.1,17.7-4.1c5.8,0,10.7,1.3,14.8,3.8c1.4,0.8,3.4,3.3,6.1,7.5c1.3,2.1,2,3.9,2,5.5l-0.1,2.6
		c0.1,1.7,0.1,2.6,0.1,2.7c0,0.7-0.3,1.1-0.8,1.1c-1.1,0-3.4-0.6-6.9-1.8c-2.7-0.9-7.3-1.4-13.7-1.4c-9.6,0-17.7,1-24.5,3
		c-4.5,1.3-6.8,2.9-6.8,4.6c0,3.3,1.7,6.9,5.2,10.8c2.8,3.1,7.5,4.7,14.1,4.7c9.1,0,18-2.3,26.6-6.8
		C546.7,308,548,307.2,549.6,306.3z M503.6,290.7c0.8,0.5,1.5,0.7,2.1,0.7c0.5,0,3.5-0.6,8.9-1.8c3.9-0.9,9.2-1.3,16-1.3
		c3.2,0,7.5,0.3,12.9,0.8c-0.7-3.2-1.9-5.4-3.6-6.7c-4.4-3.5-9.4-5.3-15.1-5.3c-3.1,0-6.5,1.2-10.2,3.6
		C512,282.4,508.4,285.7,503.6,290.7z M301.8,145.9l0.9-0.1c2.2,1.5,3.4,3,3.7,4.5c0.2,1.4,0.5,3.2,0.7,5.3l1.5,16.2l-0.2,1.1
		c5.9,0.3,9.1,0.5,9.6,0.6c2.3,0.6,4.1,2.1,5.6,4.5c0.8,1.3,1.2,2.4,1.2,3.4c0,2.7-1.1,5.4-3.3,8.1c-0.3,0.3-0.6,0.6-1,0.8
		c-0.4,0.2-1.7,0.8-4,1.7c-3.4,1.5-5.8,2.5-7.2,2.9c-1.4,0.4-3.1,0.6-5.2,0.6c-0.7,0-1.4,0-2-0.1c-1-0.1-1.7-0.2-2.1-0.2
		c-0.6,0-1.4,0.3-2.4,0.8c-0.1-0.4-0.3-1.1-0.6-1.9c3.2-9,4.9-14,5.1-14.9c1.2-5.7,1.9-14.1,1.9-25.3c0-2.2-0.1-3.8-0.4-4.7
		C303,148.4,302.5,147.3,301.8,145.9z M305.7,188.4c1.9-0.2,3.2-0.5,4.1-1c1.4-0.7,2.2-1,2.5-1l1.3,0c0.7,0,1.7-0.7,2.9-2.1
		c1.3-1.6,2-3,2-4.3c0-0.6-0.4-1.3-1.1-1.9c-1.3-1.1-2.6-1.6-3.9-1.6c-3.5,0.2-5.3,0.3-5.4,0.4c-0.2,0.2-0.4,2.3-0.8,6.4
		c-0.1,0.7-0.4,1.9-1,3.6C306.1,187.3,305.9,187.8,305.7,188.4z M333.7,213c3.1,0.4,5.1,0.6,6,0.6c1.9,0,3.9-0.6,6-1.8
		c4.1-2.4,6.8-6.2,8.1-11.6l3.4-14.6l1-4.9c-1.8,1.5-4.5,3.9-8,7c-1.7,1.5-3.5,2.8-5.2,3.7c-0.2,0.1-0.5,0.2-0.7,0.2
		c-0.5,0-1-0.3-1.6-0.9c-1-1-1.4-2.2-1.4-3.6c0-1.6,0.4-4.4,1.1-8.3c0.7-3.9,1.1-7.5,1.1-10.9c0-2.3-0.5-3.8-1.6-4.6
		c-0.2-0.2-2.3-0.4-6.2-0.8c-0.2,0-0.3-0.2-0.3-0.4c0-0.6,0.8-0.9,2.5-0.9c3.4,0,6,1,7.8,2.9c1.4,1.5,2,3.3,2,5.5c0,1-0.1,2-0.2,3.2
		c-0.6,4.6-0.8,8.5-0.8,11.5c0,0.5,0.2,1,0.6,1.5l12.4-11.2l5.8-13.8c0.6-0.5,1.1-0.7,1.6-0.7c0.9,0,1.3,0.3,1.2,0.9l-0.1,0.8
		l0.4,2.9c0.1,0.7-1.5,3.1-4.7,7.3c-0.8,1-1.9,7.3-3.5,18.9l-1.7,12.2c-0.7,5.4-2.6,9.4-5.5,11.9c-1.9,1.6-4.5,2.4-7.8,2.4
		C340.2,217.7,336.4,216.2,333.7,213z M28.4,58C37-3.3,108,10.3,145.1,37.7c22.7,6.4,40.8-10.5,60.5-13.3
		c10.6,1.7,27.7,11.9,12.6,19.8c-11.7,6.1-32.3,7.9-41.5,14.5c-4.9,6.5-18.7,13.6-21.4,25.8c-8.8,13.5,3.2,4.1,6.9,9
		c-7.9,3-10.8,6.6-8.9,21.2c6.7,27.7,29,53.5,29.6,82.2c1.7,51.4-58.9,59.4-98.5,56.8c-22.2,0.3-44.4,1.8-59.1-14.6
		c-3.4-3.7-3.4,1.1-5.2-3.2c-0.6-2.8,0.3-14.9,4.7-16.5c55.4-41.6,6.5-39,30.4-64.5c16.6-3.2,37.2,12.2,49.4,9.2
		c8.3-5.3-1.6,12.6-11.2,8.4c-9.2,3.4-28.5-14.9-27.6-5.4c0.4,12.2,9.6,28.3-4.2,39c-12.7,3.4-50.2,29.6-16.5,29.4
		c39.8-3.2,99.8-1.5,116.7-47.1c-10.1-24.5-28.2-48.1-25.8-76.3c-2.8-27.8,19-44.3,34.9-61.8c-13.4,3.8-27.2,0-39.7-7.2
		C61-11.6,13.8,59.9,67.6,68.1c10.1-2.4,18.1-19.1,4-22.8c-6.7-0.3-19.3,15-16.7,0.7c-1.6-22.7,40.9-22.7,44,3.1
		c1.1,7.5,5.1-4.2,5.4,1.5c-5.3,2.3-1.4,12-7.5,13.4C97.7,91.9,35.3,91.7,28.4,58z M91.5,45.2c3.4,23.7-26.9,43.6-54.8,15.1
		C42.6,88.8,104.5,82.3,91.5,45.2z M69.6,35.1c-19.7,7.1,4.7,3.4,13.2,10.5C83.2,39.5,75.1,34,69.6,35.1z M214.8,34.7
		c-7.5-11.1-7.4,7-16.4,6.7C198.9,46.8,214.1,39.7,214.8,34.7z M144.2,111.2c-1-1.5-3.5,12.5-0.8,13.6
		C147.3,123.4,144.9,115.1,144.2,111.2z M98.2,237.6c13.8-4.9,1.3-1.8-4.1-2C86.9,236.6,95.3,237.6,98.2,237.6z M120.5,232.6
		c8.7-0.9-2.8-3.6-6.4-0.6C112.3,234.9,118.7,231.7,120.5,232.6z M107.5,247.6c2.9-3,7.2,1.1,9.2-2.9
		C114.5,243.4,104.6,246.7,107.5,247.6z M164.7,43.9c-1-0.1-1.5,0.7-1.1,1.6C164.8,50.4,172.2,42.5,164.7,43.9z M178.4,40.6
		c-1.1-2.1-2.9,1.9-3.7,2.8C174.5,46,179.1,42.9,178.4,40.6z M69.1,245.9c-4.1,0.7,2.7,3,4.5,1.7C73.7,245.5,70.5,246.2,69.1,245.9z
		 M156.4,228.1c3.1,4.6,0.7-1.1,2.5-3.3C159.2,222.9,155.2,226.2,156.4,228.1z M110.3,232.5c-1.2,0.4-5.2,1.8-2.4,2.8
		C109.5,234.8,114.3,232.7,110.3,232.5z M138.5,225.5c0.6-0.4,1.5-0.2,2-1C139,222.8,135.2,223.9,138.5,225.5z M56.4,200.3
		c0.6-1.4,2.6-2.5,1.7-3.7C56.8,196.6,55.8,199.1,56.4,200.3z M77.9,246c2.1,0,3.3-0.8,0.9-1.4C77.9,243.2,76.8,245.5,77.9,246z
		 M191.6,46.2c1.2-0.8,2.9-1.5,0.9-2.1C191.2,44,190.2,45.1,191.6,46.2z M130.5,228.5c-0.7-1.9-1.8-0.5-1.8,0.7
		C129.1,230.7,129.8,229.2,130.5,228.5z M158.2,45.6c1.5-0.2-1.9-2.2-2.4-1.1C156.3,45.4,157.3,45.3,158.2,45.6z M147.3,232.2
		c1.3-1.1,0.4-1.3-0.3-2.3C145.9,230.7,146.7,231.1,147.3,232.2z M61.3,193.4c-0.3-0.9-2.2,1.4-1.5,1.7
		C60.5,195.1,61.3,194.3,61.3,193.4z M141.4,232.3c-0.7-0.9-1.2-1-1.5,0C140.2,233.4,140.7,233.2,141.4,232.3z M146.8,235.3
		c1.1,0.9,1.3,0.1,2.1-0.5C148.4,233.9,147.7,235,146.8,235.3z M98.6,245.9c-0.8,0.7-0.9,1-0.2,1.8C99,247,99.5,246.9,98.6,245.9z
		 M65.5,239.9c-0.5,0.7-1.4,1.1-0.5,1.6C65.6,240.9,66.3,240.7,65.5,239.9z M105.9,243.6c0.4,1.1,0.8,0.2,1.3-0.3
		C106.8,242.4,106.4,243.1,105.9,243.6z M132.7,39.5c0.9,0.8,1.1,0.5,1.8,0C134,38.7,133.6,39.2,132.7,39.5z M193.7,253.9
		c8.7-61.3,79.6-47.7,116.7-20.3c22.7,6.4,40.8-10.5,60.5-13.3c10.6,1.7,27.7,11.9,12.6,19.8c-11.7,6.1-32.3,7.9-41.5,14.5
		c-4.9,6.5-18.7,13.6-21.4,25.8c-8.8,13.5,3.2,4.1,6.9,9c-7.9,3-10.8,6.6-8.9,21.2c6.7,27.7,29,53.5,29.6,82.2
		c1.7,51.4-58.9,59.4-98.5,56.8c-22.2,0.3-44.4,1.8-59.1-14.6c-3.4-3.7-3.4,1.1-5.2-3.2c-0.6-2.8,0.3-14.9,4.7-16.5
		c55.4-41.6,6.5-39,30.4-64.5c16.6-3.2,37.2,12.2,49.4,9.2c8.3-5.3-1.6,12.6-11.2,8.4c-9.2,3.4-28.5-14.9-27.6-5.4
		c0.4,12.2,9.6,28.3-4.2,39c-12.7,3.4-50.2,29.6-16.5,29.4c39.8-3.2,99.8-1.5,116.7-47.1c-10.1-24.5-28.2-48.1-25.8-76.3
		c-2.8-27.8,19-44.3,34.9-61.8c-13.4,3.8-27.2,0-39.7-7.2c-70.4-54.6-117.6,16.9-63.9,25.1c10.1-2.4,18.1-19.1,4-22.8
		c-6.7-0.3-19.3,15-16.7,0.7c-1.6-22.7,40.9-22.7,44,3.1c1.1,7.5,5.1-4.2,5.4,1.5c-5.3,2.3-1.4,12-7.5,13.4
		C263.1,287.7,200.6,287.6,193.7,253.9z M256.8,241c3.4,23.7-26.9,43.6-54.8,15.1C208,284.7,269.9,278.1,256.8,241z M235,231
		c-19.7,7.1,4.7,3.4,13.2,10.5C248.5,235.4,240.5,229.9,235,231z M380.1,230.6c-7.5-11.1-7.4,7-16.4,6.7
		C364.2,242.7,379.5,235.6,380.1,230.6z M309.5,307.1c-1-1.5-3.5,12.5-0.8,13.6C312.7,319.2,310.3,310.9,309.5,307.1z M263.5,433.4
		c13.8-4.9,1.3-1.8-4.1-2C252.3,432.5,260.6,433.5,263.5,433.4z M285.8,428.5c8.7-0.9-2.8-3.6-6.4-0.6
		C277.6,430.7,284.1,427.6,285.8,428.5z M272.9,443.5c2.9-3,7.2,1.1,9.2-2.9C279.8,439.3,269.9,442.5,272.9,443.5z M330.1,239.8
		c-1-0.1-1.5,0.7-1.1,1.6C330.2,246.3,337.6,238.4,330.1,239.8z M343.7,236.5c-1.1-2.1-2.9,1.9-3.7,2.8
		C339.9,241.9,344.5,238.8,343.7,236.5z M234.4,441.8c-4.1,0.7,2.7,3,4.5,1.7C239,441.4,235.9,442,234.4,441.8z M321.8,424
		c3.1,4.6,0.7-1.1,2.5-3.3C324.6,418.7,320.6,422.1,321.8,424z M275.7,428.4c-1.2,0.4-5.2,1.8-2.4,2.8
		C274.9,430.7,279.6,428.6,275.7,428.4z M303.9,421.4c0.6-0.4,1.5-0.2,2-1C304.4,418.6,300.6,419.8,303.9,421.4z M221.8,396.2
		c0.6-1.4,2.6-2.5,1.7-3.7C222.2,392.5,221.1,395,221.8,396.2z M243.3,441.9c2.1,0,3.3-0.8,0.9-1.4
		C243.3,439,242.2,441.3,243.3,441.9z M357,242.1c1.2-0.8,2.9-1.5,0.9-2.1C356.6,239.8,355.6,241,357,242.1z M295.8,424.3
		c-0.7-1.9-1.8-0.5-1.8,0.7C294.5,426.6,295.2,425.1,295.8,424.3z M323.6,241.5c1.5-0.2-1.9-2.2-2.4-1.1
		C321.6,241.2,322.7,241.2,323.6,241.5z M312.7,428c1.3-1.1,0.4-1.3-0.3-2.3C311.3,426.6,312.1,427,312.7,428z M226.7,389.3
		c-0.3-0.9-2.2,1.4-1.5,1.7C225.8,391,226.7,390.2,226.7,389.3z M306.8,428.2c-0.7-0.9-1.2-1-1.5,0
		C305.6,429.3,306.1,429.1,306.8,428.2z M312.2,431.1c1.1,0.9,1.3,0.1,2.1-0.5C313.8,429.8,313,430.8,312.2,431.1z M264,441.8
		c-0.8,0.7-0.9,1-0.2,1.8C264.4,442.9,264.9,442.7,264,441.8z M230.9,435.8c-0.5,0.7-1.4,1.1-0.5,1.6
		C230.9,436.8,231.6,436.6,230.9,435.8z M271.3,439.4c0.4,1.1,0.8,0.2,1.3-0.3C272.2,438.3,271.8,439,271.3,439.4z M298,235.4
		c0.9,0.8,1.1,0.5,1.8,0C299.3,234.5,299,235,298,235.4z"/>
</g>
<g id="Creepy_copy_4">
	<g id="Insides">
		<path d="M192.6,96.5c0.8,0.5,1.5,0.7,2.1,0.7c0.5,0,3.5-0.6,8.9-1.8c3.9-0.9,9.2-1.3,16-1.3c3.2,0,7.5,0.3,12.9,0.8
			c-0.7-3.2-1.9-5.4-3.6-6.7c-4.4-3.5-9.4-5.3-15.1-5.3c-3.1,0-6.5,1.2-10.2,3.6C201.1,88.2,197.4,91.5,192.6,96.5z"/>
		<path d="M356.8,96.5c0.8,0.5,1.5,0.7,2.1,0.7c0.5,0,3.5-0.6,8.9-1.8c3.9-0.9,9.2-1.3,16-1.3c3.2,0,7.5,0.3,12.9,0.8
			c-0.7-3.2-1.9-5.4-3.6-6.7c-4.4-3.5-9.4-5.3-15.1-5.3c-3.1,0-6.5,1.2-10.2,3.6C365.3,88.2,361.7,91.5,356.8,96.5z"/>
		<path d="M391.6,277.4v-0.2V277c0-0.2-0.3-0.5-1-0.8c-2.2-1.1-4.4-1.6-6.6-1.6c-2.7,0-6.7,1.4-12,4.2c-6.9,3.8-11.6,9.2-14,16.3
			c-1.4,4.3-2.2,7.7-2.2,10.4c0,2.5,0.9,4.9,2.6,7.2c1.8,2.4,4,3.6,6.8,3.6c2.9,0,6.4-1.7,10.3-5.1c6.2-5.4,10.8-14.3,13.8-26.7
			c0.6-2.4,1.1-4.1,1.6-5.1C391.4,278.5,391.6,277.8,391.6,277.4z"/>
		<path d="M453.2,286.6c-0.1,0-0.2,0-0.4,0.1c-0.1,0.1-1.5,0.3-4,0.9c-11,2.4-16.5,8-16.5,16.8c0,4.3,0.9,7.7,2.8,10.5
			c0.9,1.3,2,1.8,3.3,1.6c6.6-1.2,10.7-2.1,12.2-2.5c1.6-0.4,2.6-0.9,3.2-1.6l0.1-0.2l-0.9-6.7l0.1-2.4l0.1-4.5l1.6-10.5
			C454.9,287.1,454.3,286.6,453.2,286.6z"/>
		<path d="M503.6,290.7c0.8,0.5,1.5,0.7,2.1,0.7c0.5,0,3.5-0.6,8.9-1.8c3.9-0.9,9.2-1.3,16-1.3c3.2,0,7.5,0.3,12.9,0.8
			c-0.7-3.2-1.9-5.4-3.6-6.7c-4.4-3.5-9.4-5.3-15.1-5.3c-3.1,0-6.5,1.2-10.2,3.6C512,282.4,508.4,285.7,503.6,290.7z"/>
		<path d="M305.7,188.4c1.9-0.2,3.2-0.5,4.1-1c1.4-0.7,2.2-1,2.5-1l1.3,0c0.7,0,1.7-0.7,2.9-2.1c1.3-1.6,2-3,2-4.3
			c0-0.6-0.4-1.3-1.1-1.9c-1.3-1.1-2.6-1.6-3.9-1.6c-3.5,0.2-5.3,0.3-5.4,0.4c-0.2,0.2-0.4,2.3-0.8,6.4c-0.1,0.7-0.4,1.9-1,3.6
			C306.1,187.3,305.9,187.8,305.7,188.4z"/>
		<path d="M91.5,45.2c3.4,23.7-26.9,43.6-54.8,15.1C42.6,88.8,104.5,82.3,91.5,45.2z"/>
		<path d="M69.6,35.1c-19.7,7.1,4.7,3.4,13.2,10.5C83.2,39.5,75.1,34,69.6,35.1z"/>
		<path d="M214.8,34.7c-7.5-11.1-7.4,7-16.4,6.7C198.9,46.8,214.1,39.7,214.8,34.7z"/>
		<path d="M144.2,111.2c-1-1.5-3.5,12.5-0.8,13.6C147.3,123.4,144.9,115.1,144.2,111.2z"/>
		<path d="M98.2,237.6c13.8-4.9,1.3-1.8-4.1-2C86.9,236.6,95.3,237.6,98.2,237.6z"/>
		<path d="M120.5,232.6c8.7-0.9-2.8-3.6-6.4-0.6C112.3,234.9,118.7,231.7,120.5,232.6z"/>
		<path d="M107.5,247.6c2.9-3,7.2,1.1,9.2-2.9C114.5,243.4,104.6,246.7,107.5,247.6z"/>
		<path d="M164.7,43.9c-1-0.1-1.5,0.7-1.1,1.6C164.8,50.4,172.2,42.5,164.7,43.9z"/>
		<path d="M178.4,40.6c-1.1-2.1-2.9,1.9-3.7,2.8C174.5,46,179.1,42.9,178.4,40.6z"/>
		<path d="M69.1,245.9c-4.1,0.7,2.7,3,4.5,1.7C73.7,245.5,70.5,246.2,69.1,245.9z"/>
		<path d="M156.4,228.1c3.1,4.6,0.7-1.1,2.5-3.3C159.2,222.9,155.2,226.2,156.4,228.1z"/>
		<path d="M110.3,232.5c-1.2,0.4-5.2,1.8-2.4,2.8C109.5,234.8,114.3,232.7,110.3,232.5z"/>
		<path d="M138.5,225.5c0.6-0.4,1.5-0.2,2-1C139,222.8,135.2,223.9,138.5,225.5z"/>
		<path d="M56.4,200.3c0.6-1.4,2.6-2.5,1.7-3.7C56.8,196.6,55.8,199.1,56.4,200.3z"/>
		<path d="M77.9,246c2.1,0,3.3-0.8,0.9-1.4C77.9,243.2,76.8,245.5,77.9,246z"/>
		<path d="M191.6,46.2c1.2-0.8,2.9-1.5,0.9-2.1C191.2,44,190.2,45.1,191.6,46.2z"/>
		<path d="M130.5,228.5c-0.7-1.9-1.8-0.5-1.8,0.7C129.1,230.7,129.8,229.2,130.5,228.5z"/>
		<path d="M158.2,45.6c1.5-0.2-1.9-2.2-2.4-1.1C156.3,45.4,157.3,45.3,158.2,45.6z"/>
		<path d="M147.3,232.2c1.3-1.1,0.4-1.3-0.3-2.3C145.9,230.7,146.7,231.1,147.3,232.2z"/>
		<path d="M61.3,193.4c-0.3-0.9-2.2,1.4-1.5,1.7C60.5,195.1,61.3,194.3,61.3,193.4z"/>
		<path d="M141.4,232.3c-0.7-0.9-1.2-1-1.5,0C140.2,233.4,140.7,233.2,141.4,232.3z"/>
		<path d="M146.8,235.3c1.1,0.9,1.3,0.1,2.1-0.5C148.4,233.9,147.7,235,146.8,235.3z"/>
		<path d="M98.6,245.9c-0.8,0.7-0.9,1-0.2,1.8C99,247,99.5,246.9,98.6,245.9z"/>
		<path d="M65.5,239.9c-0.5,0.7-1.4,1.1-0.5,1.6C65.6,240.9,66.3,240.7,65.5,239.9z"/>
		<path d="M105.9,243.6c0.4,1.1,0.8,0.2,1.3-0.3C106.8,242.4,106.4,243.1,105.9,243.6z"/>
		<path d="M132.7,39.5c0.9,0.8,1.1,0.5,1.8,0C134,38.7,133.6,39.2,132.7,39.5z"/>
		<path d="M256.8,241c3.4,23.7-26.9,43.6-54.8,15.1C208,284.7,269.9,278.1,256.8,241z"/>
		<path d="M235,231c-19.7,7.1,4.7,3.4,13.2,10.5C248.5,235.4,240.5,229.9,235,231z"/>
		<path d="M380.1,230.6c-7.5-11.1-7.4,7-16.4,6.7C364.2,242.7,379.5,235.6,380.1,230.6z"/>
		<path d="M309.5,307.1c-1-1.5-3.5,12.5-0.8,13.6C312.7,319.2,310.3,310.9,309.5,307.1z"/>
		<path d="M263.5,433.4c13.8-4.9,1.3-1.8-4.1-2C252.3,432.5,260.6,433.5,263.5,433.4z"/>
		<path d="M285.8,428.5c8.7-0.9-2.8-3.6-6.4-0.6C277.6,430.7,284.1,427.6,285.8,428.5z"/>
		<path d="M272.9,443.5c2.9-3,7.2,1.1,9.2-2.9C279.8,439.3,269.9,442.5,272.9,443.5z"/>
		<path d="M330.1,239.8c-1-0.1-1.5,0.7-1.1,1.6C330.2,246.3,337.6,238.4,330.1,239.8z"/>
		<path d="M343.7,236.5c-1.1-2.1-2.9,1.9-3.7,2.8C339.9,241.9,344.5,238.8,343.7,236.5z"/>
		<path d="M234.4,441.8c-4.1,0.7,2.7,3,4.5,1.7C239,441.4,235.9,442,234.4,441.8z"/>
		<path d="M321.8,424c3.1,4.6,0.7-1.1,2.5-3.3C324.6,418.7,320.6,422.1,321.8,424z"/>
		<path d="M275.7,428.4c-1.2,0.4-5.2,1.8-2.4,2.8C274.9,430.7,279.6,428.6,275.7,428.4z"/>
		<path d="M303.9,421.4c0.6-0.4,1.5-0.2,2-1C304.4,418.6,300.6,419.8,303.9,421.4z"/>
		<path d="M221.8,396.2c0.6-1.4,2.6-2.5,1.7-3.7C222.2,392.5,221.1,395,221.8,396.2z"/>
		<path d="M243.3,441.9c2.1,0,3.3-0.8,0.9-1.4C243.3,439,242.2,441.3,243.3,441.9z"/>
		<path d="M357,242.1c1.2-0.8,2.9-1.5,0.9-2.1C356.6,239.8,355.6,241,357,242.1z"/>
		<path d="M295.8,424.3c-0.7-1.9-1.8-0.5-1.8,0.7C294.5,426.6,295.2,425.1,295.8,424.3z"/>
		<path d="M323.6,241.5c1.5-0.2-1.9-2.2-2.4-1.1C321.6,241.2,322.7,241.2,323.6,241.5z"/>
		<path d="M312.7,428c1.3-1.1,0.4-1.3-0.3-2.3C311.3,426.6,312.1,427,312.7,428z"/>
		<path d="M226.7,389.3c-0.3-0.9-2.2,1.4-1.5,1.7C225.8,391,226.7,390.2,226.7,389.3z"/>
		<path d="M306.8,428.2c-0.7-0.9-1.2-1-1.5,0C305.6,429.3,306.1,429.1,306.8,428.2z"/>
		<path d="M312.2,431.1c1.1,0.9,1.3,0.1,2.1-0.5C313.8,429.8,313,430.8,312.2,431.1z"/>
		<path d="M264,441.8c-0.8,0.7-0.9,1-0.2,1.8C264.4,442.9,264.9,442.7,264,441.8z"/>
		<path d="M230.9,435.8c-0.5,0.7-1.4,1.1-0.5,1.6C230.9,436.8,231.6,436.6,230.9,435.8z"/>
		<path d="M298,235.4c0.9,0.8,1.1,0.5,1.8,0C299.3,234.5,299,235,298,235.4z"/>
		<path d="M271.3,439.4c0.4,1.1,0.8,0.2,1.3-0.3C272.2,438.3,271.8,439,271.3,439.4z"/>
	</g>
	<g id="Outsides">
		<path d="M238.7,112.1c-1,5-2.7,8.5-5.1,10.4c-6,5-13.8,7.4-23.5,7.4c-2.1,0-4.1-0.2-6-0.7c-3.3-0.8-5.8-1.3-7.7-1.4
			c-1.9-0.1-4.3-2.1-7.1-5.9c-4.5-6.1-6.7-12.4-6.7-18.9c0-3.4,2.6-7.5,7.9-12.6c4-3.8,7.5-6.5,10.5-8.3c4.6-2.7,10.4-4.1,17.7-4.1
			c5.8,0,10.7,1.3,14.8,3.8c1.4,0.8,3.4,3.3,6.1,7.5c1.3,2.1,2,3.9,2,5.5l-0.1,2.6c0.1,1.7,0.1,2.6,0.1,2.7c0,0.7-0.3,1.1-0.8,1.1
			c-1.1,0-3.4-0.6-6.9-1.8c-2.7-0.9-7.3-1.4-13.7-1.4c-9.6,0-17.7,1-24.5,3c-4.5,1.3-6.8,2.9-6.8,4.6c0,3.3,1.7,6.9,5.2,10.8
			c2.8,3.1,7.5,4.7,14.1,4.7c9.1,0,18-2.3,26.6-6.8C235.8,113.7,237.1,113,238.7,112.1z"/>
		<path d="M255.5,68.7c0.5-0.2,1-0.3,1.3-0.3c1.5,0,3.6,1.3,6.1,3.9c1.8,1.8,3.2,4.1,4.3,6.9c3.5,9.1,5.6,15.1,6.2,18.2
			c0.8,3.7,1.8,9.4,2.9,17.2l13.7-29.6c3.4-7.4,5.1-11.5,5.1-12.3c0-0.1-0.1-0.3-0.1-0.6c-0.8-1.6-1.2-2.6-1.2-2.8
			c0-0.6,0.4-0.9,1.1-0.9c0.7,0,1.8,0.5,3.2,1.6c1.2,0.9,2,1.9,2.3,3l7,26l4.3,16.7l11.7-28.8c2-4.9,4-8.8,6.2-11.7
			c1.7-2.4,2.5-4.1,2.5-5.1c0-0.6-0.4-1.2-1.3-1.9c1.5-0.3,2.7-0.4,3.6-0.4c1.2,0,1.9,0.4,1.9,1.3c0,0.8-0.8,2.5-2.5,5.2
			c-2.8,4.7-4.7,8.4-5.5,11.2l-6.6,21.6l-3.6,10.7c-0.9,4.7-1.6,7.4-1.9,8.1c-1.6,3.7-3.7,5.6-6.3,5.6c-1.2,0-2.2-0.6-3.1-1.7
			c-0.6-0.7-0.9-1.3-1-1.7l-2.2-9.2c-0.1-0.5-0.5-1.8-1.3-3.9c-0.3-1.1-0.6-2-0.7-2.7l-4.8-33l-8.9,26.3l-1.6,4.2
			c-0.1,1.4-0.2,2.3-0.4,2.8c-0.2,0.5-0.8,1.3-1.8,2.4c0.1,0.2,0.2,0.4,0.2,0.6c0,0.1-0.4,0.9-1.2,2.5l-1.6,3.3l-1.7,2.8
			c-0.7,1.8-1.3,2.9-1.6,3.3c-0.5,0.5-1.7,1-3.5,1.5l-0.1,0.1l-2.1-1c-0.8-0.3-1.2-0.6-1.3-0.7c-0.1-0.1-0.7-2.3-1.9-6.5
			c0,0,0.1-0.7,0.4-1.9c0.1-0.6,0.2-1.1,0.2-1.3c0-0.8-0.8-7.2-2.5-18.9c-0.7-4.8-2-9.8-3.8-15.1C262.3,78.6,259.4,73.7,255.5,68.7z
			"/>
		<path d="M402.9,112.1c-1,5-2.7,8.5-5.1,10.4c-6,5-13.8,7.4-23.5,7.4c-2.1,0-4.1-0.2-6-0.7c-3.3-0.8-5.8-1.3-7.7-1.4
			c-1.9-0.1-4.3-2.1-7.1-5.9c-4.5-6.1-6.7-12.4-6.7-18.9c0-3.4,2.6-7.5,7.9-12.6c4-3.8,7.5-6.5,10.5-8.3c4.6-2.7,10.4-4.1,17.7-4.1
			c5.8,0,10.7,1.3,14.8,3.8c1.4,0.8,3.4,3.3,6.1,7.5c1.3,2.1,2,3.9,2,5.5l-0.1,2.6c0.1,1.7,0.1,2.6,0.1,2.7c0,0.7-0.3,1.1-0.8,1.1
			c-1.1,0-3.4-0.6-6.9-1.8c-2.7-0.9-7.3-1.4-13.7-1.4c-9.6,0-17.7,1-24.5,3c-4.5,1.3-6.8,2.9-6.8,4.6c0,3.3,1.7,6.9,5.2,10.8
			c2.8,3.1,7.5,4.7,14.1,4.7c9.1,0,18-2.3,26.6-6.8C400,113.7,401.3,113,402.9,112.1z"/>
		<path d="M433,61.3c1.4,1.4,2.3,2.4,2.6,3c0.3,0.6,0.7,1.8,1,3.6c1.5,9.5,2.2,17.6,2.2,24.3c0,2.5-0.6,8.8-1.8,18.9
			c-0.4,3.5-0.7,5.5-0.9,6.2c-0.7,2.3-2.5,5.3-5.5,9.2c5.6-0.4,9.7-0.7,12.3-0.7h7.9c4.4,0,8.2-1,11.3-3c1.8-1.1,3.9-3.5,6.2-7
			c0.1,1.1,0.1,2.1,0.1,2.9c0,2.2-1.4,5.3-4.3,9.3c-2.3,3.2-6.2,4.8-11.9,4.8c-0.4,0-4.8-0.2-13.3-0.7l-2.2-0.1
			c-7.6,0.1-11.9,0.5-13.1,1c-1.2,0.5-2.1,0.8-2.7,0.8c-0.3,0-0.6-0.6-1-1.9c-0.5-1.6-0.8-2.5-0.8-2.7c0-0.6,1.7-3.2,5.1-7.6
			c2.7-3.5,5-9.1,7.1-16.6c1.8-7.1,2.7-17.2,2.7-30.1v-1.9C434.1,69.7,433.7,65.7,433,61.3z"/>
		<path d="M484.1,74.1c1-0.1,1.8-0.4,2.4-0.8c4.7,1.7,7.7,3.7,9,6c1.6,2.8,2.7,8.1,3.3,15.7c3.9-4.9,6.4-7.9,7.7-9l12.1-10.3
			c0.7-0.6,1.9-3,3.5-7.3c3.1,1.9,4.6,3.6,4.6,5.2c0,0.3-5.6,5.9-16.8,16.6c-0.6,0.6-1.9,2.6-4,5.9c-2.1,3.3-3.6,5.9-4.5,7.6
			c-0.7,1.3-1.3,4.1-1.9,8.2l-1,7.2c-3.3,8.9-5.2,13.6-5.6,14c-1,1.1-2.3,1.6-3.8,1.6l-2.6-0.4h-0.1h-0.1c-0.2,0.2-0.5,0.4-0.8,0.4
			c-0.9,0-2-0.7-3-2.1c-0.6-0.9-1-1.5-1-1.8c0,0,1.1-1.9,3.3-5.5c0.7-1.2,2-5.4,3.7-12.6c2-8.7,3-16.4,3-23.3c0-3.6-0.1-6.3-0.3-7.9
			C490.9,78.9,488.6,76.4,484.1,74.1z"/>
		<path d="M537.6,159.1c5,0.7,8.2,1,9.7,1c3,0,6.2-0.9,9.6-2.8c6.6-3.8,10.9-10,12.9-18.6l5.5-23.4l1.6-7.8
			c-2.9,2.4-7.2,6.2-12.8,11.2c-2.7,2.5-5.5,4.4-8.4,5.9c-0.4,0.2-0.8,0.3-1.1,0.3c-0.7,0-1.6-0.5-2.5-1.5c-1.5-1.6-2.3-3.5-2.3-5.7
			c0-2.6,0.6-7,1.7-13.2c1.1-6.2,1.7-12,1.7-17.4c0-3.6-0.8-6.1-2.5-7.4c-0.3-0.2-3.7-0.7-10-1.3c-0.3,0-0.4-0.2-0.4-0.6
			c0-0.9,1.3-1.4,4-1.4c5.5,0,9.7,1.5,12.5,4.6c2.2,2.3,3.3,5.3,3.3,8.8c0,1.5-0.1,3.2-0.3,5.1c-0.9,7.4-1.3,13.6-1.3,18.4
			c0,0.8,0.3,1.6,0.9,2.5l19.8-17.9l9.3-22.1c0.9-0.7,1.8-1.1,2.5-1.1c1.4,0,2,0.5,1.9,1.4l-0.1,1.3l0.6,4.6c0.1,1.1-2.4,5-7.6,11.7
			c-1.2,1.6-3.1,11.7-5.6,30.3l-2.7,19.5c-1.2,8.7-4.1,15.1-8.8,19c-3,2.6-7.2,3.9-12.4,3.9C548.1,166.6,541.9,164.1,537.6,159.1z"
			/>
		<path d="M411.2,318c-1.4,1.3-2.5,2.5-3.1,3.3c-0.9,1.3-1.6,2.1-2.1,2.4c-0.5,0.3-1.2,0.4-2.2,0.4c-2.5,0-4.7-0.1-6.8-0.3
			c-2.3-0.2-4-1-5.3-2.5c-2.2-2.7-3.9-7.7-5-15.2c-2.6,4.8-5.5,8.3-8.8,10.6c-5.8,4-11,5.9-15.5,5.9c-2.6,0-5.2-1.4-7.6-4.2
			c-3.1-3.5-4.6-8-4.6-13.4c0-8.2,3-15.7,9.1-22.4c4.3-4.7,11.1-8.7,20.4-12c4.6-1.6,8.1-2.5,10.6-2.5c0.6,0,1.3,0.2,2,0.6
			c1.5,0.8,2.3,1.2,2.4,1.2l3.3-0.4c0.5,0.6,0.8,1.2,0.8,1.7c0,0.2-0.1,0.6-0.1,1c-2.3,9.5-3.5,16.8-3.5,21.8c0,5,0.7,10.3,2.1,16.1
			c1.3,5.8,3.8,8.8,7.3,8.8C406.4,319,408.6,318.7,411.2,318z"/>
		<path d="M477,240.1c1.5-0.2,2.8-0.4,3.8-0.4c0.7,0,1.9,0.2,3.5,0.7c-1.7,3-3.1,5.3-4.1,6.8c-5,7.6-7.7,11.9-8.2,13.1
			c-0.8,1.9-2.7,7.1-5.6,15.4c-0.6,1.7-1,4-1.3,6.9l-0.6,5.9c-1.3,7.6-2,12.2-2,13.6c0,3.6,0.5,7.7,1.6,12.3
			c0.2,1.1,1.1,2.6,2.5,4.5l2.9,3.9c0.1,0.2,0.2,0.6,0.2,1c0,0.8-0.7,1.7-2.1,2.6c-1.4,0.9-2.8,1.4-4,1.4c-1.3,0-2.4-0.5-3.3-1.6
			c-0.2-0.2-1.2-1.4-2.7-3.3c-0.9-1.2-1.7-3.2-2.4-6.1c-6.8,4-12.2,6-16.1,6c-4.1,0-7.5-1.5-10-4.5c-2.4-2.7-3.6-5.8-3.6-9.3
			c0-6.2,2.5-12,7.4-17.5c3.6-4.1,7.4-6.5,11.3-7.2c8.6-1.5,13-2.4,13.1-2.6c0.7-0.8,1.7-4.1,3-10c0.5-2.4,2.3-6.1,5.3-11
			c4.5-7.1,7.6-11.7,9.6-13.7c2.2-2.3,3.3-3.9,3.3-4.7C478.5,241.9,478,241.1,477,240.1z"/>
		<path d="M549.6,306.3c-1,5-2.7,8.5-5.1,10.4c-6,5-13.8,7.4-23.5,7.4c-2.1,0-4.1-0.2-6-0.7c-3.3-0.8-5.8-1.3-7.7-1.4
			c-1.9-0.1-4.3-2.1-7.1-5.9c-4.5-6.1-6.7-12.4-6.7-18.9c0-3.4,2.6-7.5,7.9-12.6c4-3.8,7.5-6.5,10.5-8.3c4.6-2.7,10.4-4.1,17.7-4.1
			c5.8,0,10.7,1.3,14.8,3.8c1.4,0.8,3.4,3.3,6.1,7.5c1.3,2.1,2,3.9,2,5.5l-0.1,2.6c0.1,1.7,0.1,2.6,0.1,2.7c0,0.7-0.3,1.1-0.8,1.1
			c-1.1,0-3.4-0.6-6.9-1.8c-2.7-0.9-7.3-1.4-13.7-1.4c-9.6,0-17.7,1-24.5,3c-4.5,1.3-6.8,2.9-6.8,4.6c0,3.3,1.7,6.9,5.2,10.8
			c2.8,3.1,7.5,4.7,14.1,4.7c9.1,0,18-2.3,26.6-6.8C546.7,308,548,307.2,549.6,306.3z"/>
		<path d="M301.8,145.9l0.9-0.1c2.2,1.5,3.4,3,3.7,4.5c0.2,1.4,0.5,3.2,0.7,5.3l1.5,16.2l-0.2,1.1c5.9,0.3,9.1,0.5,9.6,0.6
			c2.3,0.6,4.1,2.1,5.6,4.5c0.8,1.3,1.2,2.4,1.2,3.4c0,2.7-1.1,5.4-3.3,8.1c-0.3,0.3-0.6,0.6-1,0.8c-0.4,0.2-1.7,0.8-4,1.7
			c-3.4,1.5-5.8,2.5-7.2,2.9c-1.4,0.4-3.1,0.6-5.2,0.6c-0.7,0-1.4,0-2-0.1c-1-0.1-1.7-0.2-2.1-0.2c-0.6,0-1.4,0.3-2.4,0.8
			c-0.1-0.4-0.3-1.1-0.6-1.9c3.2-9,4.9-14,5.1-14.9c1.2-5.7,1.9-14.1,1.9-25.3c0-2.2-0.1-3.8-0.4-4.7
			C303,148.4,302.5,147.3,301.8,145.9z"/>
		<path d="M333.7,213c3.1,0.4,5.1,0.6,6,0.6c1.9,0,3.9-0.6,6-1.8c4.1-2.4,6.8-6.2,8.1-11.6l3.4-14.6l1-4.9c-1.8,1.5-4.5,3.9-8,7
			c-1.7,1.5-3.5,2.8-5.2,3.7c-0.2,0.1-0.5,0.2-0.7,0.2c-0.5,0-1-0.3-1.6-0.9c-1-1-1.4-2.2-1.4-3.6c0-1.6,0.4-4.4,1.1-8.3
			c0.7-3.9,1.1-7.5,1.1-10.9c0-2.3-0.5-3.8-1.6-4.6c-0.2-0.2-2.3-0.4-6.2-0.8c-0.2,0-0.3-0.2-0.3-0.4c0-0.6,0.8-0.9,2.5-0.9
			c3.4,0,6,1,7.8,2.9c1.4,1.5,2,3.3,2,5.5c0,1-0.1,2-0.2,3.2c-0.6,4.6-0.8,8.5-0.8,11.5c0,0.5,0.2,1,0.6,1.5l12.4-11.2l5.8-13.8
			c0.6-0.5,1.1-0.7,1.6-0.7c0.9,0,1.3,0.3,1.2,0.9l-0.1,0.8l0.4,2.9c0.1,0.7-1.5,3.1-4.7,7.3c-0.8,1-1.9,7.3-3.5,18.9l-1.7,12.2
			c-0.7,5.4-2.6,9.4-5.5,11.9c-1.9,1.6-4.5,2.4-7.8,2.4C340.2,217.7,336.4,216.2,333.7,213z"/>
		<path d="M28.4,58C37-3.3,108,10.3,145.1,37.7c22.7,6.4,40.8-10.5,60.5-13.3c10.6,1.7,27.7,11.9,12.6,19.8
			c-11.7,6.1-32.3,7.9-41.5,14.5c-4.9,6.5-18.7,13.6-21.4,25.8c-8.8,13.5,3.2,4.1,6.9,9c-7.9,3-10.8,6.6-8.9,21.2
			c6.7,27.7,29,53.5,29.6,82.2c1.7,51.4-58.9,59.4-98.5,56.8c-22.2,0.3-44.4,1.8-59.1-14.6c-3.4-3.7-3.4,1.1-5.2-3.2
			c-0.6-2.8,0.3-14.9,4.7-16.5c55.4-41.6,6.5-39,30.4-64.5c16.6-3.2,37.2,12.2,49.4,9.2c8.3-5.3-1.6,12.6-11.2,8.4
			c-9.2,3.4-28.5-14.9-27.6-5.4c0.4,12.2,9.6,28.3-4.2,39c-12.7,3.4-50.2,29.6-16.5,29.4c39.8-3.2,99.8-1.5,116.7-47.1
			c-10.1-24.5-28.2-48.1-25.8-76.3c-2.8-27.8,19-44.3,34.9-61.8c-13.4,3.8-27.2,0-39.7-7.2C61-11.6,13.8,59.9,67.6,68.1
			c10.1-2.4,18.1-19.1,4-22.8c-6.7-0.3-19.3,15-16.7,0.7c-1.6-22.7,40.9-22.7,44,3.1c1.1,7.5,5.1-4.2,5.4,1.5
			c-5.3,2.3-1.4,12-7.5,13.4C97.7,91.9,35.3,91.7,28.4,58z"/>
		<path d="M193.7,253.9c8.7-61.3,79.6-47.7,116.7-20.3c22.7,6.4,40.8-10.5,60.5-13.3c10.6,1.7,27.7,11.9,12.6,19.8
			c-11.7,6.1-32.3,7.9-41.5,14.5c-4.9,6.5-18.7,13.6-21.4,25.8c-8.8,13.5,3.2,4.1,6.9,9c-7.9,3-10.8,6.6-8.9,21.2
			c6.7,27.7,29,53.5,29.6,82.2c1.7,51.4-58.9,59.4-98.5,56.8c-22.2,0.3-44.4,1.8-59.1-14.6c-3.4-3.7-3.4,1.1-5.2-3.2
			c-0.6-2.8,0.3-14.9,4.7-16.5c55.4-41.6,6.5-39,30.4-64.5c16.6-3.2,37.2,12.2,49.4,9.2c8.3-5.3-1.6,12.6-11.2,8.4
			c-9.2,3.4-28.5-14.9-27.6-5.4c0.4,12.2,9.6,28.3-4.2,39c-12.7,3.4-50.2,29.6-16.5,29.4c39.8-3.2,99.8-1.5,116.7-47.1
			c-10.1-24.5-28.2-48.1-25.8-76.3c-2.8-27.8,19-44.3,34.9-61.8c-13.4,3.8-27.2,0-39.7-7.2c-70.4-54.6-117.6,16.9-63.9,25.1
			c10.1-2.4,18.1-19.1,4-22.8c-6.7-0.3-19.3,15-16.7,0.7c-1.6-22.7,40.9-22.7,44,3.1c1.1,7.5,5.1-4.2,5.4,1.5
			c-5.3,2.3-1.4,12-7.5,13.4C263.1,287.7,200.6,287.6,193.7,253.9z"/>
	</g>
</g>
</svg>
