<?xml version="1.0" encoding="utf-8"?>
<!-- Generator: Adobe Illustrator 25.4.3, SVG Export Plug-In . SVG Version: 6.00 Build 0)  -->
<svg version="1.1" xmlns="http://www.w3.org/2000/svg" xmlns:xlink="http://www.w3.org/1999/xlink" x="0px" y="0px"
	 viewBox="0 0 166 122" style="enable-background:new 0 0 166 122;" xml:space="preserve">
<style type="text/css">
	.st0{display:none;}
	.st1{display:inline;}
	.st2{display:none;fill:none;stroke:#000000;stroke-width:3;stroke-linecap:round;stroke-linejoin:round;stroke-miterlimit:10;}
</style>
<g id="Jade">
	<g class="st0">
		<g class="st1">
			<g>
				<path d="M95.2,62.4c-2.9,1.9-5.9,4.6-6.2,8.5c0.3,5.4,2.6,10.4,4.3,15.4c0.9,2.5,3.4,7.1,3,9.6c-0.8,5.5-5.8,5.6-10.4,6.1
					c-4.2,0.4-15.3,1.9-17.4-2.3c-0.2-1.3,0.8-1.8,2.1-2.6c1.2-0.7,2.6-1.8,2.7-3.5c0.2-2.5-2.4-3.7-3.3-5.3
					c-0.3-0.5-0.2-1.4,0.1-1.7c0.1,0,0.5,0.1,0.9,0.2c2.5,1.3,5.8,2,8.6,1c0.3-0.1,0.2-0.5-0.1-0.5c-1.8,0.2-3.6-0.2-5.2-1
					c-1.4-0.6-2.3-1.8-4.1-2.1c-2.5-0.1-3.5,2.9-3,4.9c0.4,1.3,1.2,2.2,1.8,3c0.3,0.4,0.6,0.7,0.7,0.9c0.1,0.3,0.1,0.3,0,0.2
					c0,0,0-0.2-0.1,0c-0.2,0.1-0.5,0.3-0.9,0.5c-0.8,0.4-1.8,0.9-2.9,1.8c-1.6,1.5-2.3,4.1-1.3,6.2c3.4,7.4,15.3,6.2,22,5.6
					c3.1-0.4,6.2-0.6,9.1-2.2c5.5-3.2,6.8-10.1,3.9-15.4C97,83.9,93.6,78,91.8,72c-1.2-4.6,3.6-7.5,6.6-10c1.6-1.3,3.5-2.3,5.2-3.5
					c0.2-0.1,0.4-0.3,0.6-0.6c0,0,0.1-0.2,0.1-0.5c0-0.2-0.2-0.5-0.4-0.6c-0.3-0.1-0.5-0.1-0.5-0.1c-0.7,0.1-1.2,0.4-1.7,0.5
					c-5.7,2.2-12.3,3.6-18.3,1.9c-1.8-0.7-2.4-1.8-4.3-2.9c-4.8-2.3-12.9-0.8-15.4,4.3c-1.1,2.4-1.1,5.3,0.6,7.4
					c3.3,3.9,10.2,2.7,12.1-2c0.7-1.8-0.4-4.2-2.3-4.6c-1.5-0.5-4,0.1-3.8,2.1c0,0.3,0.5,0.3,0.5,0c0.2-1.3,1.9-1.1,2.8-0.6
					c2.6,1.8-1,4.2-3,4.2c-4,0.2-5-3.7-2-5.9c2.2-1.4,6-1.9,8.5-1c0.5,0.2,1.2,0.7,2.1,1.4c4.5,2.9,10.7,2.4,15.1,1.2L95.2,62.4z"/>
			</g>
		</g>
	</g>
	<path id="uniform_round_00000006686047798873657120000009164027995538161833_" class="st2" d="M70.5,63.5c0-2,3-1.8,4-1
		c0.1,0,1,0.8,1,2c0.1,1.9-2.1,3.5-4,4c-1.9,0.5-4.7,0.1-6-2c-1.4-2.2-0.1-4.8,0-5c1.9-3.6,7.3-4,8-4c7.2-0.3,4.8,3.8,13,4
		c2.8,0.1,5.9-0.6,8-1c4.6-1,8.9-3.3,9-3c0.1,0.3-4,2.5-7,5c-1.4,1.2-5,3.2-6,7c-0.5,1.9-0.5,4.2,7,21c0.6,1.3,1.8,4,1,7
		c-0.6,2.4-2.2,3.9-2.7,4.3c-2.1,1.9-4.6,2.2-8.3,2.7c-18.7,2.4-20.4-2.5-21-4c-0.3-0.8-0.1-1.7,0-2c0.8-3,4.7-3,5-5
		c0.3-2-3.3-3.2-3-6c0-0.2,0.1-1.5,1-2c1.3-0.7,2.9,1.3,6,2c1.7,0.4,3.1,0.2,4,0"/>
	<g id="Thin_sqiggle" class="st0">
		<path class="st1" d="M70.4,63.5c0-2.4,3.8-2.4,5-0.9c2.4,3-1.4,6.5-4.4,6.9c-5.2,0.9-8.8-3.7-6.5-8.6c1.5-3,5-4.3,8-4.7
			c2.1-0.2,4.3-0.2,6.3,0.8c1,0.5,1.8,1.2,2.4,1.7c2.1,1.5,4.7,1.7,7.3,1.6c3.6-0.2,7.3-0.8,10.8-2c1.4-0.4,2.7-1.1,4.2-1.5
			c0,0,0.2,0,0.4,0.1c0.2,0.1,0.3,0.3,0.3,0.4c0,0.2,0,0.3,0,0.3c-0.1,0.3-0.3,0.4-0.5,0.5c-2.6,1.7-5.1,3.2-7.5,5.2
			c-4.2,3-6.3,6.2-4,11.2c1.3,3.5,2.9,6.8,4.4,10.2c1.4,3.3,4.1,7.3,3.8,11.1c-0.2,3.3-2.1,6.4-5,8.1c-2.7,1.5-5.9,1.7-8.7,2.1
			c-1.9,0.2-3.8,0.4-5.7,0.5c-5.3,0-13.8,0.1-15.6-6.2c-0.3-1.6,0.3-3.3,1.4-4.4c1.2-1.2,2.5-1.5,3.6-2.3c0.2-0.2,0.3-0.3,0.3-0.4
			c0-0.1,0-0.3-0.2-0.6c-0.8-1.2-2-2-2.4-3.7c-0.5-1.7,0.2-4.4,2.4-4.3c1.6,0.2,2.6,1.4,4,1.9c1.6,0.8,3.5,1,5.3,0.8
			c0.2,0,0.2,0.3,0.1,0.3c-2.8,0.9-5.9,0-8.3-1.3c-0.4-0.2-0.8-0.3-1.1-0.3c-0.9,0.1-0.9,1.7-0.6,2.4c0.4,1.1,1.7,2,2.5,3.1
			c1.5,1.9,0.2,4-1.7,4.9c-1.2,0.7-2.2,1.2-2.5,2.4c-0.3,1,0.1,1.6,0.7,2.3c3.6,3.5,12.9,2.3,17.6,1.9c1.8-0.2,3.7-0.4,5.4-0.8
			c3.2-0.6,5.6-3.2,5.9-6.4c0.3-2.8-2.2-7.3-3.1-10c-1.4-3.5-2.7-7-3.8-10.7c-0.5-1.9-1.1-3.9-0.5-5.9c0.9-2.9,3.2-4.9,5.6-6.6
			c2.4-2,5.2-3.6,7.6-5.4c0,0,0,0,0,0.1c0,0,0,0.1,0,0.2c0,0.2,0.3,0.4,0.4,0.4c0,0,0,0,0,0c-3,1.2-6.1,2.8-9.2,3.4
			c-4.4,1.1-10.2,2.3-14.6-0.5c-0.9-0.6-1.5-1.2-2.2-1.5c-3.2-1.3-8.9-0.6-10.9,2.6c-1.6,3.2,0.6,6,4.1,5.7c2-0.1,5.3-2.1,3.8-4.5
			c-0.6-1-2.2-1.2-3.3-0.8c-0.3,0.2-0.6,0.6-0.6,1C70.6,63.7,70.4,63.7,70.4,63.5L70.4,63.5z"/>
	</g>
	<path id="Drawn_00000139252253387938098510000016645268495402060176_" d="M57.1,64.9c1.8-12.9,16.8-10,24.6-4.3
		c4.8,1.4,8.6-2.2,12.7-2.8c2.2,0.4,5.8,2.5,2.7,4.2c-2.5,1.3-6.8,1.7-8.7,3.1c-1,1.4-3.9,2.9-4.5,5.4c-1.8,2.8,0.7,0.9,1.4,1.9
		c-1.7,0.6-2.3,1.4-1.9,4.5c1.4,5.8,6.1,11.2,6.2,17.3c0.4,10.8-12.4,12.5-20.7,11.9c-4.7,0.1-9.3,0.4-12.4-3.1
		c-0.7-0.8-0.7,0.2-1.1-0.7c-0.1-0.6,0.1-3.1,1-3.5c11.7-8.8,1.4-8.2,6.4-13.6c3.5-0.7,7.8,2.6,10.4,1.9c1.7-1.1-0.3,2.7-2.3,1.8
		c-1.9,0.7-6-3.1-5.8-1.1c0.1,2.6,2,5.9-0.9,8.2c-2.7,0.7-10.6,6.2-3.5,6.2c8.4-0.7,21-0.3,24.5-9.9c-2.1-5.1-5.9-10.1-5.4-16.1
		c-0.6-5.9,4-9.3,7.3-13c-2.8,0.8-5.7,0-8.3-1.5C64,50.2,54.1,65.3,65.4,67c2.1-0.5,3.8-4,0.8-4.8c-1.4-0.1-4.1,3.1-3.5,0.1
		c-0.3-4.8,8.6-4.8,9.3,0.7c0.2,1.6,1.1-0.9,1.1,0.3c-1.1,0.5-0.3,2.5-1.6,2.8C71.7,72,58.6,72,57.1,64.9z M70.4,62.2
		c0.7,5-5.7,9.2-11.5,3.2C60.1,71.4,73.1,70,70.4,62.2z M65.8,60.1c-4.1,1.5,1,0.7,2.8,2.2C68.6,61,67,59.8,65.8,60.1z M96.3,60
		c-1.6-2.3-1.6,1.5-3.4,1.4C93,62.5,96.2,61,96.3,60z M81.5,76.1c-0.2-0.3-0.7,2.6-0.2,2.9C82.1,78.6,81.6,76.9,81.5,76.1z
		 M71.8,102.7c2.9-1,0.3-0.4-0.9-0.4C69.4,102.5,71.2,102.7,71.8,102.7z M76.5,101.6c1.8-0.2-0.6-0.8-1.3-0.1
		C74.8,102.1,76.1,101.4,76.5,101.6z M73.8,104.8c0.6-0.6,1.5,0.2,1.9-0.6C75.2,103.9,73.1,104.6,73.8,104.8z M85.8,61.9
		c-0.2,0-0.3,0.1-0.2,0.3C85.8,63.3,87.4,61.6,85.8,61.9z M88.7,61.2c-0.2-0.4-0.6,0.4-0.8,0.6C87.9,62.4,88.8,61.7,88.7,61.2z
		 M65.7,104.4c-0.9,0.2,0.6,0.6,1,0.4C66.6,104.3,66,104.5,65.7,104.4z M84,100.7c0.7,1,0.1-0.2,0.5-0.7
		C84.6,99.6,83.8,100.3,84,100.7z M74.4,101.6c-0.2,0.1-1.1,0.4-0.5,0.6C74.2,102.1,75.2,101.7,74.4,101.6z M80.3,100.1
		c0.1-0.1,0.3,0,0.4-0.2C80.4,99.6,79.6,99.8,80.3,100.1z M63,94.8c0.1-0.3,0.5-0.5,0.4-0.8C63.1,94,62.9,94.6,63,94.8z M67.5,104.4
		c0.4,0,0.7-0.2,0.2-0.3C67.5,103.8,67.3,104.3,67.5,104.4z M91.5,62.4c0.3-0.2,0.6-0.3,0.2-0.4C91.4,61.9,91.2,62.2,91.5,62.4z
		 M78.6,100.8c-0.2-0.4-0.4-0.1-0.4,0.1C78.3,101.2,78.5,100.9,78.6,100.8z M84.4,62.3c0.3-0.1-0.4-0.5-0.5-0.2
		C84,62.2,84.2,62.2,84.4,62.3z M82.1,101.5c0.3-0.2,0.1-0.3-0.1-0.5C81.9,101.2,82,101.3,82.1,101.5z M64,93.4
		c-0.1-0.2-0.5,0.3-0.3,0.4C63.9,93.7,64,93.6,64,93.4z M80.9,101.6c-0.1-0.2-0.3-0.2-0.3,0C80.7,101.8,80.8,101.8,80.9,101.6z
		 M82,102.2c0.2,0.2,0.3,0,0.4-0.1C82.4,101.9,82.2,102.1,82,102.2z M71.9,104.4c-0.2,0.2-0.2,0.2,0,0.4
		C72,104.7,72.1,104.6,71.9,104.4z M64.9,103.2c-0.1,0.1-0.3,0.2-0.1,0.3C64.9,103.4,65.1,103.3,64.9,103.2z M73.4,103.9
		c0.1,0.2,0.2,0,0.3-0.1C73.6,103.7,73.5,103.8,73.4,103.9z M79.1,61c0.2,0.2,0.2,0.1,0.4,0C79.3,60.8,79.3,60.9,79.1,61z"/>
</g>
<g id="Jewelry">
	<g id="Drawn">
		<path d="M22.3,23.7c1.8-12.9,16.8-10,24.6-4.3c4.8,1.4,8.6-2.2,12.7-2.8c2.2,0.4,5.8,2.5,2.7,4.2c-2.5,1.3-6.8,1.7-8.7,3.1
			c-1,1.4-3.9,2.9-4.5,5.4c-1.8,2.8,0.7,0.9,1.4,1.9c-1.7,0.6-2.3,1.4-1.9,4.5c1.4,5.8,6.1,11.2,6.2,17.3
			c0.4,10.8-12.4,12.5-20.7,11.9c-4.7,0.1-9.3,0.4-12.4-3.1C21,61,21,62,20.6,61.1c-0.1-0.6,0.1-3.1,1-3.5
			c11.7-8.8,1.4-8.2,6.4-13.6c3.5-0.7,7.8,2.6,10.4,1.9c1.7-1.1-0.3,2.7-2.3,1.8c-1.9,0.7-6-3.1-5.8-1.1c0.1,2.6,2,5.9-0.9,8.2
			c-2.7,0.7-10.6,6.2-3.5,6.2c8.4-0.7,21-0.3,24.5-9.9C48.3,46,44.5,41,45,35c-0.6-5.9,4-9.3,7.3-13c-2.8,0.8-5.7,0-8.3-1.5
			C29.2,9,19.3,24.1,30.6,25.8c2.1-0.5,3.8-4,0.8-4.8c-1.4-0.1-4.1,3.1-3.5,0.1c-0.3-4.8,8.6-4.8,9.3,0.7c0.2,1.6,1.1-0.9,1.1,0.3
			c-1.1,0.5-0.3,2.5-1.6,2.8C36.9,30.8,23.8,30.8,22.3,23.7z M35.6,21c0.7,5-5.7,9.2-11.5,3.2C25.3,30.2,38.3,28.8,35.6,21z
			 M31,18.9c-4.1,1.5,1,0.7,2.8,2.2C33.9,19.8,32.2,18.6,31,18.9z M61.5,18.8c-1.6-2.3-1.6,1.5-3.4,1.4
			C58.2,21.3,61.4,19.8,61.5,18.8z M46.7,34.9c-0.2-0.3-0.7,2.6-0.2,2.9C47.3,37.4,46.8,35.7,46.7,34.9z M37,61.5
			c2.9-1,0.3-0.4-0.9-0.4C34.6,61.3,36.4,61.5,37,61.5z M41.7,60.4c1.8-0.2-0.6-0.8-1.3-0.1C40,60.9,41.3,60.2,41.7,60.4z M39,63.6
			c0.6-0.6,1.5,0.2,1.9-0.6C40.4,62.7,38.4,63.4,39,63.6z M51,20.7c-0.2,0-0.3,0.1-0.2,0.3C51,22.1,52.6,20.4,51,20.7z M53.9,20
			c-0.2-0.4-0.6,0.4-0.8,0.6C53.1,21.2,54,20.5,53.9,20z M30.9,63.2c-0.9,0.2,0.6,0.6,1,0.4C31.9,63.1,31.2,63.3,30.9,63.2z
			 M49.3,59.5c0.7,1,0.1-0.2,0.5-0.7C49.9,58.4,49,59.1,49.3,59.5z M39.6,60.4c-0.2,0.1-1.1,0.4-0.5,0.6
			C39.4,60.9,40.4,60.4,39.6,60.4z M45.5,58.9c0.1-0.1,0.3,0,0.4-0.2C45.6,58.3,44.8,58.6,45.5,58.9z M28.2,53.6
			c0.1-0.3,0.5-0.5,0.4-0.8C28.3,52.8,28.1,53.4,28.2,53.6z M32.8,63.2c0.4,0,0.7-0.2,0.2-0.3C32.7,62.6,32.5,63.1,32.8,63.2z
			 M56.7,21.2c0.3-0.2,0.6-0.3,0.2-0.4C56.6,20.7,56.4,21,56.7,21.2z M43.8,59.5c-0.2-0.4-0.4-0.1-0.4,0.1
			C43.5,60,43.7,59.7,43.8,59.5z M49.6,21.1c0.3-0.1-0.4-0.5-0.5-0.2C49.2,21,49.5,21,49.6,21.1z M47.4,60.3
			c0.3-0.2,0.1-0.3-0.1-0.5C47.1,60,47.2,60.1,47.4,60.3z M29.3,52.2c-0.1-0.2-0.5,0.3-0.3,0.4C29.1,52.5,29.3,52.4,29.3,52.2z
			 M46.1,60.3c-0.1-0.2-0.3-0.2-0.3,0C45.9,60.6,46,60.5,46.1,60.3z M47.2,61c0.2,0.2,0.3,0,0.4-0.1C47.6,60.7,47.4,60.9,47.2,61z
			 M37.1,63.2c-0.2,0.2-0.2,0.2,0,0.4C37.2,63.5,37.3,63.4,37.1,63.2z M30.1,62c-0.1,0.1-0.3,0.2-0.1,0.3
			C30.1,62.2,30.3,62.1,30.1,62z M38.6,62.7c0.1,0.2,0.2,0,0.3-0.1C38.8,62.5,38.7,62.6,38.6,62.7z M44.3,19.8
			c0.2,0.2,0.2,0.1,0.4,0C44.5,19.6,44.5,19.7,44.3,19.8z"/>
	</g>
</g>
<g id="Creepy_copy_3">
	<g>
		<path d="M66.6,35.1c-0.2,1.1-0.6,1.8-1.1,2.2c-1.3,1-2.9,1.6-5,1.6c-0.4,0-0.9-0.1-1.3-0.2c-0.7-0.2-1.2-0.3-1.6-0.3
			c-0.4,0-0.9-0.4-1.5-1.2c-0.9-1.3-1.4-2.6-1.4-4c0-0.7,0.6-1.6,1.7-2.6c0.8-0.8,1.6-1.4,2.2-1.8c1-0.6,2.2-0.9,3.7-0.9
			c1.2,0,2.3,0.3,3.1,0.8c0.3,0.2,0.7,0.7,1.3,1.6c0.3,0.4,0.4,0.8,0.4,1.2l0,0.5c0,0.4,0,0.6,0,0.6c0,0.2-0.1,0.2-0.2,0.2
			c-0.2,0-0.7-0.1-1.5-0.4c-0.6-0.2-1.5-0.3-2.9-0.3c-2,0-3.7,0.2-5.2,0.6c-0.9,0.3-1.4,0.6-1.4,1c0,0.7,0.4,1.5,1.1,2.3
			c0.6,0.7,1.6,1,3,1c1.9,0,3.8-0.5,5.6-1.4C66,35.4,66.2,35.3,66.6,35.1z M56.9,31.8c0.2,0.1,0.3,0.2,0.4,0.2
			c0.1,0,0.7-0.1,1.9-0.4c0.8-0.2,1.9-0.3,3.4-0.3c0.7,0,1.6,0.1,2.7,0.2c-0.2-0.7-0.4-1.1-0.8-1.4c-0.9-0.7-2-1.1-3.2-1.1
			c-0.7,0-1.4,0.3-2.2,0.8C58.7,30,57.9,30.7,56.9,31.8z"/>
		<path d="M70.1,25.9c0.1,0,0.2-0.1,0.3-0.1c0.3,0,0.8,0.3,1.3,0.8c0.4,0.4,0.7,0.9,0.9,1.5c0.7,1.9,1.2,3.2,1.3,3.8
			c0.2,0.8,0.4,2,0.6,3.6l2.9-6.2c0.7-1.6,1.1-2.4,1.1-2.6c0,0,0-0.1,0-0.1c-0.2-0.3-0.2-0.5-0.2-0.6c0-0.1,0.1-0.2,0.2-0.2
			s0.4,0.1,0.7,0.3c0.3,0.2,0.4,0.4,0.5,0.6l1.5,5.5l0.9,3.5l2.5-6.1c0.4-1,0.8-1.8,1.3-2.5c0.4-0.5,0.5-0.9,0.5-1.1
			c0-0.1-0.1-0.3-0.3-0.4c0.3-0.1,0.6-0.1,0.8-0.1c0.3,0,0.4,0.1,0.4,0.3c0,0.2-0.2,0.5-0.5,1.1c-0.6,1-1,1.8-1.2,2.4L84,34
			l-0.8,2.2c-0.2,1-0.3,1.5-0.4,1.7c-0.3,0.8-0.8,1.2-1.3,1.2c-0.2,0-0.5-0.1-0.7-0.4c-0.1-0.1-0.2-0.3-0.2-0.4l-0.5-1.9
			c0-0.1-0.1-0.4-0.3-0.8c-0.1-0.2-0.1-0.4-0.1-0.6l-1-6.9L77,33.7l-0.3,0.9c0,0.3,0,0.5-0.1,0.6c0,0.1-0.2,0.3-0.4,0.5
			c0,0.1,0,0.1,0,0.1c0,0-0.1,0.2-0.2,0.5L75.6,37l-0.4,0.6c-0.2,0.4-0.3,0.6-0.3,0.7c-0.1,0.1-0.3,0.2-0.7,0.3l0,0l-0.4-0.2
			c-0.2-0.1-0.3-0.1-0.3-0.1c0,0-0.1-0.5-0.4-1.4c0,0,0-0.1,0.1-0.4c0-0.1,0-0.2,0-0.3c0-0.2-0.2-1.5-0.5-4c-0.1-1-0.4-2.1-0.8-3.2
			C71.5,28,70.9,27,70.1,25.9z"/>
		<path d="M101.1,35.1c-0.2,1.1-0.6,1.8-1.1,2.2c-1.3,1-2.9,1.6-5,1.6c-0.4,0-0.9-0.1-1.3-0.2c-0.7-0.2-1.2-0.3-1.6-0.3
			c-0.4,0-0.9-0.4-1.5-1.2c-0.9-1.3-1.4-2.6-1.4-4c0-0.7,0.6-1.6,1.7-2.6c0.8-0.8,1.6-1.4,2.2-1.8c1-0.6,2.2-0.9,3.7-0.9
			c1.2,0,2.3,0.3,3.1,0.8c0.3,0.2,0.7,0.7,1.3,1.6c0.3,0.4,0.4,0.8,0.4,1.2l0,0.5c0,0.4,0,0.6,0,0.6c0,0.2-0.1,0.2-0.2,0.2
			c-0.2,0-0.7-0.1-1.5-0.4c-0.6-0.2-1.5-0.3-2.9-0.3c-2,0-3.7,0.2-5.2,0.6c-0.9,0.3-1.4,0.6-1.4,1c0,0.7,0.4,1.5,1.1,2.3
			c0.6,0.7,1.6,1,3,1c1.9,0,3.8-0.5,5.6-1.4C100.5,35.4,100.8,35.3,101.1,35.1z M91.4,31.8c0.2,0.1,0.3,0.2,0.4,0.2
			c0.1,0,0.7-0.1,1.9-0.4c0.8-0.2,1.9-0.3,3.4-0.3c0.7,0,1.6,0.1,2.7,0.2c-0.2-0.7-0.4-1.1-0.8-1.4c-0.9-0.7-2-1.1-3.2-1.1
			c-0.7,0-1.4,0.3-2.2,0.8C93.2,30,92.4,30.7,91.4,31.8z"/>
		<path d="M107.5,24.4c0.3,0.3,0.5,0.5,0.5,0.6c0.1,0.1,0.1,0.4,0.2,0.8c0.3,2,0.5,3.7,0.5,5.1c0,0.5-0.1,1.8-0.4,4
			c-0.1,0.7-0.1,1.2-0.2,1.3c-0.1,0.5-0.5,1.1-1.2,1.9c1.2-0.1,2-0.1,2.6-0.1h1.7c0.9,0,1.7-0.2,2.4-0.6c0.4-0.2,0.8-0.7,1.3-1.5
			c0,0.2,0,0.4,0,0.6c0,0.5-0.3,1.1-0.9,2c-0.5,0.7-1.3,1-2.5,1c-0.1,0-1,0-2.8-0.1l-0.5,0c-1.6,0-2.5,0.1-2.8,0.2
			c-0.3,0.1-0.4,0.2-0.6,0.2c-0.1,0-0.1-0.1-0.2-0.4c-0.1-0.3-0.2-0.5-0.2-0.6c0-0.1,0.4-0.7,1.1-1.6c0.6-0.7,1.1-1.9,1.5-3.5
			c0.4-1.5,0.6-3.6,0.6-6.3v-0.4C107.7,26.1,107.6,25.3,107.5,24.4z"/>
		<path d="M118.2,27.1c0.2,0,0.4-0.1,0.5-0.2c1,0.4,1.6,0.8,1.9,1.3c0.3,0.6,0.6,1.7,0.7,3.3c0.8-1,1.4-1.7,1.6-1.9l2.5-2.2
			c0.1-0.1,0.4-0.6,0.7-1.5c0.6,0.4,1,0.8,1,1.1c0,0.1-1.2,1.2-3.5,3.5c-0.1,0.1-0.4,0.5-0.8,1.2c-0.4,0.7-0.8,1.2-0.9,1.6
			c-0.1,0.3-0.3,0.9-0.4,1.7l-0.2,1.5c-0.7,1.9-1.1,2.9-1.2,3c-0.2,0.2-0.5,0.3-0.8,0.3l-0.5-0.1h0h0c0,0.1-0.1,0.1-0.2,0.1
			c-0.2,0-0.4-0.1-0.6-0.4c-0.1-0.2-0.2-0.3-0.2-0.4c0,0,0.2-0.4,0.7-1.2c0.2-0.2,0.4-1.1,0.8-2.7c0.4-1.8,0.6-3.5,0.6-4.9
			c0-0.8,0-1.3-0.1-1.7C119.6,28.1,119.1,27.6,118.2,27.1z"/>
		<path d="M129.5,45c1,0.1,1.7,0.2,2,0.2c0.6,0,1.3-0.2,2-0.6c1.4-0.8,2.3-2.1,2.7-3.9l1.2-4.9l0.3-1.6c-0.6,0.5-1.5,1.3-2.7,2.4
			c-0.6,0.5-1.2,0.9-1.8,1.2c-0.1,0-0.2,0.1-0.2,0.1c-0.2,0-0.3-0.1-0.5-0.3c-0.3-0.3-0.5-0.7-0.5-1.2c0-0.6,0.1-1.5,0.4-2.8
			c0.2-1.3,0.4-2.5,0.4-3.7c0-0.8-0.2-1.3-0.5-1.5c-0.1-0.1-0.8-0.1-2.1-0.3c-0.1,0-0.1-0.1-0.1-0.1c0-0.2,0.3-0.3,0.8-0.3
			c1.2,0,2,0.3,2.6,1c0.5,0.5,0.7,1.1,0.7,1.9c0,0.3,0,0.7-0.1,1.1c-0.2,1.6-0.3,2.9-0.3,3.9c0,0.2,0.1,0.3,0.2,0.5l4.2-3.8l2-4.7
			c0.2-0.2,0.4-0.2,0.5-0.2c0.3,0,0.4,0.1,0.4,0.3l0,0.3l0.1,1c0,0.2-0.5,1.1-1.6,2.5c-0.3,0.3-0.7,2.5-1.2,6.4l-0.6,4.1
			c-0.2,1.8-0.9,3.2-1.9,4c-0.6,0.5-1.5,0.8-2.6,0.8C131.7,46.5,130.4,46,129.5,45z"/>
	</g>
	<g>
		<path d="M102.9,78.4c-0.3,0.3-0.5,0.5-0.7,0.7c-0.2,0.3-0.3,0.4-0.4,0.5c-0.1,0.1-0.3,0.1-0.5,0.1c-0.5,0-1,0-1.4-0.1
			c-0.5,0-0.8-0.2-1.1-0.5c-0.5-0.6-0.8-1.6-1-3.2c-0.5,1-1.2,1.8-1.9,2.2c-1.2,0.8-2.3,1.2-3.3,1.2c-0.6,0-1.1-0.3-1.6-0.9
			c-0.6-0.7-1-1.7-1-2.8c0-1.7,0.6-3.3,1.9-4.7c0.9-1,2.3-1.8,4.3-2.5c1-0.3,1.7-0.5,2.2-0.5c0.1,0,0.3,0,0.4,0.1
			c0.3,0.2,0.5,0.2,0.5,0.2l0.7-0.1c0.1,0.1,0.2,0.3,0.2,0.4c0,0.1,0,0.1,0,0.2c-0.5,2-0.7,3.5-0.7,4.6c0,1,0.1,2.2,0.4,3.4
			c0.3,1.2,0.8,1.8,1.5,1.8C101.9,78.6,102.3,78.5,102.9,78.4z M98.7,69.8L98.7,69.8L98.7,69.8c0-0.1-0.1-0.2-0.2-0.2
			c-0.5-0.2-0.9-0.3-1.4-0.3c-0.6,0-1.4,0.3-2.5,0.9c-1.5,0.8-2.4,1.9-2.9,3.4c-0.3,0.9-0.5,1.6-0.5,2.2c0,0.5,0.2,1,0.5,1.5
			c0.4,0.5,0.8,0.8,1.4,0.8c0.6,0,1.3-0.4,2.2-1.1c1.3-1.1,2.3-3,2.9-5.6c0.1-0.5,0.2-0.9,0.3-1.1C98.7,70.1,98.7,69.9,98.7,69.8z"
			/>
		<path d="M116.7,62c0.3-0.1,0.6-0.1,0.8-0.1c0.2,0,0.4,0.1,0.7,0.2c-0.4,0.6-0.7,1.1-0.9,1.4c-1.1,1.6-1.6,2.5-1.7,2.8
			c-0.2,0.4-0.6,1.5-1.2,3.2c-0.1,0.4-0.2,0.8-0.3,1.5l-0.1,1.2c-0.3,1.6-0.4,2.6-0.4,2.9c0,0.8,0.1,1.6,0.3,2.6
			c0.1,0.2,0.2,0.5,0.5,1l0.6,0.8c0,0.1,0,0.1,0,0.2c0,0.2-0.1,0.4-0.4,0.6c-0.3,0.2-0.6,0.3-0.9,0.3c-0.3,0-0.5-0.1-0.7-0.3
			c-0.1-0.1-0.2-0.3-0.6-0.7c-0.2-0.2-0.4-0.7-0.5-1.3c-1.4,0.8-2.6,1.3-3.4,1.3c-0.9,0-1.6-0.3-2.1-0.9c-0.5-0.6-0.8-1.2-0.8-2
			c0-1.3,0.5-2.5,1.6-3.7c0.8-0.9,1.6-1.4,2.4-1.5c1.8-0.3,2.7-0.5,2.8-0.5c0.1-0.2,0.4-0.9,0.6-2.1c0.1-0.5,0.5-1.3,1.1-2.3
			c0.9-1.5,1.6-2.5,2-2.9c0.5-0.5,0.7-0.8,0.7-1C117,62.4,116.9,62.2,116.7,62z M111.7,71.8C111.7,71.8,111.7,71.8,111.7,71.8
			c-0.1,0-0.4,0.1-0.9,0.2c-2.3,0.5-3.5,1.7-3.5,3.5c0,0.9,0.2,1.6,0.6,2.2c0.2,0.3,0.4,0.4,0.7,0.3c1.4-0.3,2.2-0.4,2.6-0.5
			c0.3-0.1,0.6-0.2,0.7-0.3l0,0l-0.2-1.4l0-0.5l0-1l0.3-2.2C112.1,71.9,111.9,71.8,111.7,71.8z"/>
		<path d="M132,75.9c-0.2,1.1-0.6,1.8-1.1,2.2c-1.3,1-2.9,1.6-5,1.6c-0.4,0-0.9-0.1-1.3-0.2c-0.7-0.2-1.2-0.3-1.6-0.3
			c-0.4,0-0.9-0.4-1.5-1.2c-0.9-1.3-1.4-2.6-1.4-4c0-0.7,0.6-1.6,1.7-2.6c0.8-0.8,1.6-1.4,2.2-1.8c1-0.6,2.2-0.9,3.7-0.9
			c1.2,0,2.3,0.3,3.1,0.8c0.3,0.2,0.7,0.7,1.3,1.6c0.3,0.4,0.4,0.8,0.4,1.2l0,0.5c0,0.4,0,0.6,0,0.6c0,0.2-0.1,0.2-0.2,0.2
			c-0.2,0-0.7-0.1-1.5-0.4c-0.6-0.2-1.5-0.3-2.9-0.3c-2,0-3.7,0.2-5.2,0.6c-0.9,0.3-1.4,0.6-1.4,1c0,0.7,0.4,1.5,1.1,2.3
			c0.6,0.7,1.6,1,3,1c1.9,0,3.8-0.5,5.6-1.4C131.4,76.3,131.7,76.1,132,75.9z M122.3,72.6c0.2,0.1,0.3,0.2,0.4,0.2
			c0.1,0,0.7-0.1,1.9-0.4c0.8-0.2,1.9-0.3,3.4-0.3c0.7,0,1.6,0.1,2.7,0.2c-0.2-0.7-0.4-1.1-0.8-1.4c-0.9-0.7-2-1.1-3.2-1.1
			c-0.7,0-1.4,0.3-2.2,0.8C124.1,70.9,123.3,71.6,122.3,72.6z"/>
	</g>
	<g>
		<path d="M79.8,42.2l0.2,0c0.5,0.3,0.7,0.6,0.8,0.9c0.1,0.3,0.1,0.7,0.1,1.1l0.3,3.4l0,0.2c1.2,0.1,1.9,0.1,2,0.1
			c0.5,0.1,0.9,0.4,1.2,0.9c0.2,0.3,0.2,0.5,0.2,0.7c0,0.6-0.2,1.1-0.7,1.7c-0.1,0.1-0.1,0.1-0.2,0.2s-0.4,0.2-0.8,0.4
			c-0.7,0.3-1.2,0.5-1.5,0.6s-0.7,0.1-1.1,0.1c-0.1,0-0.3,0-0.4,0c-0.2,0-0.4,0-0.4,0c-0.1,0-0.3,0.1-0.5,0.2c0-0.1-0.1-0.2-0.1-0.4
			c0.7-1.9,1-2.9,1.1-3.1c0.3-1.2,0.4-3,0.4-5.3c0-0.5,0-0.8-0.1-1C80.1,42.7,80,42.5,79.8,42.2z M80.7,51.1c0.4,0,0.7-0.1,0.9-0.2
			c0.3-0.1,0.5-0.2,0.5-0.2l0.3,0c0.2,0,0.4-0.1,0.6-0.4c0.3-0.3,0.4-0.6,0.4-0.9c0-0.1-0.1-0.3-0.2-0.4c-0.3-0.2-0.5-0.3-0.8-0.3
			c-0.7,0-1.1,0.1-1.1,0.1c0,0-0.1,0.5-0.2,1.3c0,0.2-0.1,0.4-0.2,0.8C80.8,50.9,80.7,51,80.7,51.1z"/>
		<path d="M86.6,56.3c0.7,0.1,1.1,0.1,1.3,0.1c0.4,0,0.8-0.1,1.3-0.4c0.9-0.5,1.4-1.3,1.7-2.4l0.7-3.1l0.2-1
			c-0.4,0.3-0.9,0.8-1.7,1.5c-0.4,0.3-0.7,0.6-1.1,0.8c-0.1,0-0.1,0-0.1,0c-0.1,0-0.2-0.1-0.3-0.2c-0.2-0.2-0.3-0.5-0.3-0.8
			c0-0.3,0.1-0.9,0.2-1.7s0.2-1.6,0.2-2.3c0-0.5-0.1-0.8-0.3-1c0,0-0.5-0.1-1.3-0.2c0,0-0.1,0-0.1-0.1c0-0.1,0.2-0.2,0.5-0.2
			c0.7,0,1.3,0.2,1.6,0.6c0.3,0.3,0.4,0.7,0.4,1.2c0,0.2,0,0.4,0,0.7c-0.1,1-0.2,1.8-0.2,2.4c0,0.1,0,0.2,0.1,0.3l2.6-2.4l1.2-2.9
			c0.1-0.1,0.2-0.1,0.3-0.1c0.2,0,0.3,0.1,0.3,0.2l0,0.2l0.1,0.6c0,0.1-0.3,0.7-1,1.5c-0.2,0.2-0.4,1.5-0.7,4l-0.4,2.6
			c-0.2,1.1-0.5,2-1.2,2.5c-0.4,0.3-0.9,0.5-1.6,0.5C87.9,57.3,87.1,57,86.6,56.3z"/>
	</g>
</g>
</svg>
